<svg width="533" height="303" viewBox="0 0 533 303" fill="none" xmlns="http://www.w3.org/2000/svg">
<path d="M527.205 171.06C527.268 170.807 525.168 154.104 517.387 121.425C509.385 87.8166 487.961 67.685 471.566 51.4597C446.865 27.0129 417.845 15.5915 400.272 10.0747C383.037 4.66383 364.192 4.55938 345.154 5.38823C325.91 6.22607 307.073 12.1773 284.609 21.0579C253.073 33.5248 230.05 51.1509 218.173 64.4776C205.966 78.1736 200.648 97.7853 195.741 118.976C190.013 143.711 192.874 172.123 195.913 198.043C201.166 242.845 223.928 267.708 230.213 270.958C251.721 282.077 286.683 247.339 301.771 228.584C318.905 207.287 308.406 174.54 302.136 151.48C295.464 126.937 275.228 105.549 249.545 87.2316C223.737 68.8257 194.039 67.2139 166.226 66.4263C150.902 65.9923 135.377 71.0186 114.215 79.0386C79.8364 92.0674 53.0071 112.853 38.0186 127.865C10.9163 155.009 7.40686 194.108 5.01551 229.401C5.19918 237.932 5.9321 245.75 8.22524 256.953C10.5184 268.155 14.3495 282.505 18.2967 297.29" stroke="#ECF26F" stroke-width="10.0233" stroke-linecap="round" stroke-dasharray="20.05 20.05"/>
</svg>
