<svg width="312" height="117" viewBox="0 0 312 117" fill="none" xmlns="http://www.w3.org/2000/svg">
<g clip-path="url(#clip0_390_4522)">
<path d="M155.127 54.9671C154.851 53.9668 154.364 53.1764 153.424 52.6208C152.424 52.0568 151.248 51.8876 150.222 52.3404C149.583 52.6087 148.919 53.0534 148.481 53.5908C146.825 54.6733 145.974 56.8322 146.838 58.7575C147.072 59.2116 147.307 59.6656 147.677 60.0189C147.811 60.3384 148.071 60.616 148.281 60.8263C148.441 60.9693 148.609 61.0535 148.777 61.1377C149.364 61.6425 150.145 62.055 150.977 62.1147C152.927 62.3351 154.979 61.0093 155.661 59.1863C156.167 57.7582 155.975 56.1697 155.127 54.9671Z" fill="#8852DE"/>
<path d="M167.893 63.0471C166.961 62.4328 165.995 62.0536 164.852 62.0693C164.071 62.077 163.398 62.1604 162.692 62.479C161.027 63.2001 159.782 64.762 159.579 66.5938C159.536 66.8879 159.561 67.1316 159.586 67.3754C159.561 67.5518 159.594 67.7367 159.628 67.9217C159.661 68.5268 159.929 69.1657 160.273 69.6955C160.609 70.2841 161.011 70.8223 161.549 71.2598C162.187 71.8319 163.035 72.1941 163.926 72.2622C164.22 72.3045 164.464 72.2795 164.767 72.263C165.01 72.238 165.246 72.2719 165.489 72.2469C166.405 72.1386 167.305 71.7276 168.045 71.1737C168.785 70.6198 169.374 69.864 169.736 69.0156C170.385 67.0077 169.699 64.2674 167.893 63.0471Z" fill="#8852DE"/>
<path d="M150.875 72.0057C151.181 69.0479 149.301 66.6762 146.444 66.0852C145.453 65.8825 144.402 65.6714 143.419 65.4099C142.142 65.1061 140.755 65.567 139.679 66.3727C139.435 66.3977 139.242 66.4899 138.981 66.6325C137.888 67.1357 136.996 67.908 136.533 69.042C136.078 70.1173 136.06 71.4955 136.504 72.58C137.091 73.9251 138.116 74.7329 139.376 75.1543C139.477 75.2889 139.636 75.4319 139.745 75.5076C141.71 77.2912 144.626 77.4705 146.787 76.2204C147.527 76.0867 148.224 75.8269 148.897 75.3233C149.831 74.6771 150.748 73.3082 150.875 72.0057Z" fill="#8852DE"/>
<path d="M169.659 87.4954C169.518 85.9742 168.948 84.5114 167.991 83.2331C166.48 81.2147 164.011 79.5988 161.541 79.2434C159.541 78.9558 157.684 79.3489 156.128 80.1458C154.388 80.976 152.874 82.3191 152.057 84.2428C151.863 84.7553 151.669 85.2677 151.534 85.7886C151.096 87.1664 150.993 88.7126 151.311 90.2592C152.222 95.1931 156.403 99.9369 161.942 98.9926C167.481 98.0484 171.049 92.8584 169.659 87.4954Z" fill="#8852DE"/>
<path d="M184.521 75.1648C184.496 74.9211 184.471 74.6773 184.446 74.4336C184.39 71.4838 181.106 69.2704 178.298 70.4274C177.407 70.7795 176.558 71.2577 175.759 71.8031C175.498 71.9457 175.229 72.1472 175.019 72.3571C174.405 72.8691 173.774 73.4988 173.547 74.2465C173.361 74.7001 173.294 75.1706 173.167 75.6327C173.015 76.2713 173.182 77.1958 173.459 77.776C173.82 78.6083 174.441 79.298 175.214 79.7694C175.55 79.9378 175.885 80.1062 176.171 80.2073C176.389 80.3588 176.599 80.5691 176.826 80.6617C177.767 81.2173 178.918 81.563 180.027 81.3624C181.263 81.1199 182.6 80.5917 183.357 79.5C183.66 79.0633 183.971 78.5678 184.224 78.0638C184.553 77.0304 184.545 76.2489 184.521 75.1648Z" fill="#8852DE"/>
<path d="M139.425 84.8272C139.434 84.7683 139.375 84.7599 139.383 84.7011L139.392 84.6423C139.309 83.5497 138.915 82.5324 137.924 81.9096C137.445 81.4805 136.824 81.211 136.177 81.1179C133.933 80.8552 131.957 82.492 131.644 84.6683C131.44 86.0799 131.843 87.4585 132.581 88.5854C132.833 88.9218 133.093 89.1993 133.421 89.4266C133.471 89.4938 133.471 89.4938 133.521 89.5611C133.983 90.1078 134.529 90.4865 135.218 90.7057C136.713 91.1609 138.386 90.381 139.018 88.911C139.195 88.5162 139.321 88.0541 139.448 87.592C139.743 86.794 139.769 85.7771 139.425 84.8272Z" fill="#8852DE"/>
<path d="M132.179 52.9867C132.424 51.7011 132.123 50.4571 131.426 49.4563C131.158 48.8174 130.763 48.2203 130.117 47.7071C129.252 47.0423 127.874 46.604 126.773 46.7458C126.462 46.8211 126.151 46.8964 125.899 46.9802C124.857 47.1305 123.949 47.6002 123.116 48.381C122.569 48.8426 122.19 49.3885 121.912 50.0689C121.727 50.5226 121.601 50.9846 121.533 51.4552C121.474 51.8669 121.473 52.2871 121.532 52.7157L121.523 52.7746C121.522 54.0351 121.638 55.3126 122.511 56.3387C123.225 57.2218 124.157 57.8362 125.249 58.1734C127.728 58.8901 130.359 57.7078 131.429 55.2801C131.597 54.9442 131.707 54.5997 131.749 54.3056C131.917 53.9696 132.036 53.5664 132.095 53.1546C132.154 53.1631 132.17 53.0455 132.179 52.9867Z" fill="#8852DE"/>
<path d="M125.792 70.6787C125.75 70.5526 125.758 70.4938 125.716 70.3677C125.18 69.0898 123.862 67.8195 122.425 67.7929L122.366 67.7844C121.349 67.7582 120.5 67.8162 119.642 68.3532C118.726 68.8818 118.28 69.478 117.792 70.3683C117.228 71.3678 117.268 72.7545 117.536 73.8136C117.846 74.9989 118.374 75.9154 119.281 76.7062C120.667 77.9261 122.473 78.306 124.247 78.0809C125.65 77.9226 126.92 77.0246 127.467 75.7226C128.1 73.8323 127.438 71.756 125.792 70.6787Z" fill="#8852DE"/>
<path d="M196.026 57.3685C195.96 56.5785 195.7 55.8807 195.247 55.2752C194.928 54.569 194.466 54.0223 193.811 53.5678C193.224 53.063 192.552 52.7262 191.737 52.549C190.997 52.2625 190.224 52.2113 189.426 52.3366C188.384 52.4869 187.492 52.8389 186.685 53.4432C185.794 54.2155 185.23 54.7948 184.708 55.9204C183.882 57.9029 184.166 60.1049 185.416 61.8457C185.861 62.5101 186.399 62.9476 187.07 63.2844C187.726 63.7388 188.406 64.0168 189.238 64.0765C189.776 64.0938 190.255 64.1027 190.793 64.12C191.583 64.0535 192.28 63.7937 192.877 63.3993C193.323 63.2233 193.727 62.9211 194.088 62.4929C194.635 62.0312 195.081 61.435 195.368 60.6957C195.443 60.5866 195.452 60.5277 195.527 60.4186C196.024 59.4694 196.177 58.4107 196.026 57.3685Z" fill="#8852DE"/>
<path d="M174.358 52.3303C174.392 52.095 174.358 51.9101 174.392 51.6748C174.376 51.3723 174.3 51.0613 174.217 50.8091C174.225 50.7503 174.242 50.6326 174.192 50.5653C174.092 49.5904 173.622 48.6823 172.942 47.9842C172.69 47.6478 172.421 47.429 172.027 47.2521C171.699 47.0249 171.363 46.8565 170.951 46.7973C170.557 46.6204 170.145 46.5612 169.775 46.6281C169.187 46.5435 168.573 46.6353 167.993 46.9121C167.8 47.0043 167.606 47.0966 167.413 47.1888C167.026 47.3733 166.631 47.6166 166.295 47.8684C165.757 48.2713 165.462 48.6492 165.167 49.027C165.167 49.027 165.167 49.027 165.176 48.9682C165.167 49.027 165.109 49.0186 165.1 49.0774C164.865 49.4637 164.629 49.8501 164.393 50.2364C164.056 50.9084 163.963 51.5554 163.979 52.2781C163.912 52.7487 163.97 53.1773 164.146 53.6229C164.288 54.3037 164.565 54.8839 164.968 55.4221C165.572 56.2295 166.328 56.8185 167.286 57.2564C168.915 58.0311 170.941 57.7222 172.354 56.6647C173.094 56.1107 173.607 55.4642 173.969 54.6157C174.247 53.9353 174.416 53.1791 174.358 52.3303Z" fill="#8852DE"/>
<path d="M190.555 92.0623C190.387 91.5579 190.144 91.1626 189.834 90.8178C189.011 89.859 188.087 89.1858 186.819 88.8232C184.567 88.1991 181.986 89.0285 180.631 90.9349C178.991 92.3199 177.872 94.2601 177.559 96.4363C177.33 98.0244 177.791 99.8317 178.747 101.11C179.1 101.581 179.578 102.01 180.065 102.38C180.494 102.742 181.048 103.062 181.552 103.314C183.702 104.224 186.089 103.907 187.965 102.556C189.504 101.457 190.22 99.8186 190.936 98.1806C191.929 96.2823 191.738 93.8534 190.555 92.0623Z" fill="#8852DE"/>
<path d="M114.278 54.3137C114.018 53.616 113.624 53.0189 113.036 52.5141C112.574 51.9674 111.978 51.5215 111.239 51.235C110.777 51.1085 110.256 50.9735 109.794 50.847C108.794 50.7032 107.819 50.8031 106.86 51.2055C106.802 51.1971 106.802 51.1971 106.734 51.2474C106.28 51.4823 105.885 51.7256 105.431 51.9605C105.078 52.3299 104.733 52.6405 104.38 53.0099C104.135 53.4551 103.832 53.8918 103.597 54.2781C103.386 54.9082 103.167 55.5971 103.074 56.2441C103.048 56.4205 103.023 56.597 102.998 56.7734C102.955 57.0675 102.963 57.4289 102.98 57.7314C102.904 58.2608 102.954 58.7483 103.189 59.2023C103.272 59.4545 103.348 59.7655 103.431 60.0177C103.784 60.9089 104.388 61.7162 105.144 62.3052C105.58 62.6082 106.017 62.9111 106.471 63.0965L106.529 63.1049C106.865 63.2733 107.277 63.3325 107.622 63.4421C107.68 63.4506 107.798 63.4675 107.848 63.5348C108.327 63.5437 108.806 63.5525 109.285 63.5614C109.353 63.5111 109.47 63.528 109.538 63.4776C109.849 63.4023 110.16 63.327 110.412 63.2432C110.471 63.2516 110.538 63.2013 110.597 63.2097C110.849 63.1259 111.051 62.9749 111.303 62.8911C111.37 62.8407 111.429 62.8492 111.438 62.7904C111.496 62.7988 111.505 62.74 111.564 62.7485C112.547 62.1696 113.33 61.3216 113.726 60.2379C113.827 59.9522 113.928 59.6666 114.038 59.3222C114.046 59.2633 114.122 59.1542 114.13 59.0953C114.838 57.5161 114.907 55.785 114.278 54.3137Z" fill="#8852DE"/>
<path d="M149.104 44.675C148.803 43.0107 148.191 41.4218 146.906 40.3365C146.646 40.0589 146.386 39.7813 146.117 39.5626C145.672 39.3184 145.235 39.0155 144.79 38.7713C144.269 38.6364 143.748 38.5014 143.236 38.3076C142.421 38.1303 141.631 38.1968 140.866 38.507C140.32 38.5485 139.866 38.7833 139.462 39.0855C138.958 39.2531 138.554 39.5552 138.251 39.9919C137.847 40.294 137.485 40.7223 137.3 41.1759C136.997 41.6126 136.745 42.1166 136.61 42.6375C136.307 43.0742 136.121 43.5278 136.045 44.0572C135.877 44.3931 135.826 44.746 135.775 45.099C135.749 45.6956 135.782 46.3007 135.757 46.8973C135.806 47.805 136.116 48.57 136.612 49.3016C136.838 49.8145 137.19 50.2855 137.619 50.6472C138.181 51.3285 138.886 51.8502 139.685 52.1451C140.827 52.5496 142.003 52.7188 143.214 52.6528C144.121 52.6033 144.886 52.2931 145.618 51.798C146.391 51.4289 147.064 50.9254 147.586 50.22C148.831 48.6581 149.43 46.5829 149.104 44.675Z" fill="#8852DE"/>
<path d="M207.447 74.8006C207.314 73.6408 206.819 72.489 206.173 71.5556C205.182 70.0923 203.444 69.2419 201.746 68.9377C199.755 68.5912 197.637 69.1269 195.963 70.327C195.021 71.032 194.02 72.1488 193.565 73.224C193.009 74.5849 192.949 75.837 193.049 77.2321C193.148 78.6272 194.155 80.393 195.297 81.2177C195.742 81.4618 196.179 81.7648 196.624 82.0089C197.414 82.3626 198.17 82.5314 199.019 82.4734C199.557 82.4908 200.111 82.3905 200.666 82.2902C201.557 82.3583 202.532 82.2584 203.364 81.8978C203.684 81.7637 204.012 81.5707 204.339 81.3778C204.407 81.3274 204.466 81.3359 204.474 81.277C204.667 81.1848 204.81 81.0253 205.004 80.933C204.937 80.9834 204.878 80.9749 204.869 81.0337C205.803 80.3875 206.594 79.4807 206.998 78.3382C207.47 77.1453 207.605 76.2042 207.447 74.8006Z" fill="#8852DE"/>
<path d="M70.2874 126.028C71.0002 127.105 71.8809 127.853 73.2084 128.148C74.6088 128.43 76.0663 128.177 77.1056 127.245C77.7583 126.681 78.3731 125.899 78.6836 125.094C80.2268 123.174 80.4012 120.291 78.6366 118.345C78.1836 117.899 77.7305 117.452 77.1571 117.176C76.8751 116.85 76.4601 116.622 76.1306 116.454C75.8866 116.346 75.6553 116.311 75.424 116.276C74.5337 115.905 73.4502 115.718 72.4426 115.969C70.0505 116.46 68.1334 118.82 68.0287 121.241C67.981 123.126 68.8205 124.932 70.2874 126.028Z" fill="#8852DE"/>
<path d="M52.0628 121.388C53.403 121.756 54.6925 121.832 56.0391 121.373C56.9611 121.062 57.7247 120.704 58.4376 120.055C60.1297 118.559 61.0011 116.231 60.5356 113.984C60.4722 113.62 60.3487 113.341 60.2251 113.062C60.1871 112.844 60.0763 112.638 59.9654 112.432C59.693 111.728 59.129 111.076 58.5176 110.581C57.8935 110.014 57.2091 109.533 56.4044 109.222C55.4286 108.791 54.2848 108.69 53.2043 108.952C52.84 109.016 52.5611 109.139 52.2094 109.276C51.9306 109.399 51.6391 109.45 51.3603 109.573C50.3178 110.055 49.4116 110.888 48.7494 111.829C48.0871 112.77 47.6815 113.892 47.58 115.035C47.5861 117.662 49.4553 120.64 52.0628 121.388Z" fill="#8852DE"/>
<path d="M68.7492 104.223C69.5283 107.842 72.668 109.923 76.2768 109.521C77.5283 109.379 78.8527 109.224 80.1169 109.154C81.7455 109.021 83.2093 107.941 84.1726 106.572C84.4515 106.449 84.6447 106.265 84.8982 105.996C85.9977 104.979 86.7551 103.721 86.8661 102.2C86.9898 100.752 86.4798 99.114 85.5357 98.0019C84.3223 96.6362 82.7983 96.0753 81.1444 96.0625C80.9734 95.9421 80.7294 95.8343 80.571 95.7868C77.558 94.4337 74.0378 95.3459 71.9624 97.6587C71.1386 98.1022 70.413 98.6788 69.8109 99.5342C68.9554 100.659 68.3976 102.633 68.7492 104.223Z" fill="#8852DE"/>
<path d="M40.5451 93.1349C41.2991 94.8808 42.5378 96.3922 44.1631 97.5361C46.7293 99.3422 50.2747 100.303 53.3354 99.7705C55.8131 99.3397 57.8599 98.1581 59.3935 96.6152C61.1331 94.9615 62.4069 92.7881 62.6321 90.1963C62.6638 89.5151 62.6955 88.8339 62.6544 88.1654C62.6419 86.3658 62.1668 84.4964 61.1942 82.7886C58.2132 77.3007 51.4363 73.2986 45.2451 76.552C39.0538 79.8055 36.8323 87.3239 40.5451 93.1349Z" fill="#8852DE"/>
<path d="M27.7118 113.459C27.8353 113.738 27.9588 114.017 28.0824 114.296C29.2861 117.765 34.0259 119.118 36.903 116.666C37.8219 115.906 38.6425 115.012 39.3776 114.059C39.6311 113.79 39.872 113.447 40.0399 113.118C40.5691 112.275 41.0729 111.287 41.054 110.314C41.0984 109.706 40.9971 109.123 40.9686 108.527C40.9021 107.713 40.3477 106.683 39.7965 106.103C39.0488 105.257 38.0476 104.68 36.9514 104.42C36.4888 104.351 36.0263 104.281 35.6492 104.271C35.3324 104.176 35.0029 104.008 34.6987 103.986C33.3712 103.691 31.8757 103.726 30.64 104.391C29.2712 105.155 27.8929 106.295 27.4175 107.88C27.2273 108.513 27.0499 109.22 26.9453 109.914C26.9547 111.263 27.2651 112.185 27.7118 113.459Z" fill="#8852DE"/>
<path d="M77.356 84.6338C77.3687 84.7067 77.4416 84.694 77.4543 84.7669L77.4669 84.8398C77.9864 86.1008 78.845 87.1528 80.2581 87.5078C80.9899 87.831 81.8295 87.9103 82.6311 87.7709C85.3877 87.2167 87.0956 84.5173 86.6269 81.821C86.3229 80.072 85.3154 78.5955 84.007 77.5467C83.5793 77.2456 83.1642 77.0175 82.689 76.8749C82.6034 76.8147 82.6035 76.8147 82.5179 76.7545C81.7607 76.2855 80.9686 76.0478 80.0688 76.0541C78.1234 76.092 76.4441 77.6602 76.2633 79.6436C76.2063 80.179 76.2347 80.7747 76.2632 81.3703C76.2219 82.4286 76.583 83.6421 77.356 84.6338Z" fill="#8852DE"/>
<path d="M98.2106 119.522C98.4164 121.138 99.2527 122.494 100.463 123.41C101.027 124.063 101.724 124.617 102.687 124.975C103.967 125.428 105.767 125.416 107.015 124.824C107.354 124.614 107.693 124.405 107.959 124.209C109.135 123.629 110.028 122.723 110.713 121.478C111.182 120.721 111.419 119.929 111.486 119.016C111.53 118.408 111.502 117.812 111.401 117.229C111.312 116.719 111.15 116.222 110.916 115.737L110.903 115.664C110.419 114.172 109.788 112.705 108.359 111.827C107.175 111.057 105.834 110.689 104.412 110.711C101.202 110.819 98.5437 113.233 98.214 116.519C98.1442 116.981 98.1474 117.431 98.2107 117.795C98.141 118.258 98.1568 118.781 98.2454 119.291C98.1726 119.304 98.1979 119.449 98.2106 119.522Z" fill="#8852DE"/>
<path d="M98.9473 96.1208C99.0455 96.2538 99.0581 96.3267 99.1563 96.4598C100.284 97.7652 102.334 98.7603 104.045 98.2376L104.118 98.2249C105.331 97.8638 106.314 97.4679 107.122 96.5016C108.003 95.5226 108.3 94.645 108.535 93.403C108.817 92.0026 108.234 90.3772 107.509 89.227C106.685 87.9438 105.706 87.0629 104.328 86.4766C102.218 85.5672 99.9334 85.8141 97.9214 86.7645C96.3213 87.4931 95.1648 89.0455 95.0189 90.7976C94.9997 93.2784 96.5837 95.4806 98.9473 96.1208Z" fill="#8852DE"/>
<path d="M14.0538 95.7881C14.4467 96.3204 14.8871 96.6943 15.3876 96.9827C16.731 97.8002 18.0838 98.2407 19.7251 98.1807C22.6305 98.051 25.3649 96.0741 26.2333 93.2955C27.6402 91.0239 28.2171 88.296 27.7483 85.5997C27.4063 83.6321 26.1644 81.6708 24.5391 80.5269C23.9403 80.1054 23.2085 79.7822 22.4893 79.5318C21.8429 79.2688 21.0636 79.104 20.3697 78.9994C17.4738 78.752 14.7711 80.0477 13.0727 82.37C11.6753 84.2646 11.4597 86.4792 11.244 88.6939C10.8003 91.3236 11.9628 94.1246 14.0538 95.7881Z" fill="#8852DE"/>
<path d="M118.884 111.049C119.461 111.774 120.158 112.329 121.048 112.7C121.805 113.168 122.683 113.466 123.668 113.52C124.264 113.492 124.933 113.451 125.528 113.422C126.767 113.207 127.882 112.713 128.861 111.867C128.934 111.854 128.934 111.854 128.995 111.769C129.441 111.316 129.815 110.875 130.262 110.422C130.538 109.849 130.826 109.348 131.102 108.775C131.219 108.154 131.409 107.52 131.539 106.972C131.545 106.145 131.539 105.245 131.4 104.444C131.362 104.225 131.324 104.006 131.286 103.788C131.223 103.423 131.074 102.999 130.937 102.647C130.823 101.991 130.576 101.433 130.123 100.987C129.927 100.721 129.718 100.382 129.521 100.115C128.761 99.1965 127.735 98.474 126.613 98.0684C125.979 97.8782 125.346 97.6881 124.737 97.6437L124.664 97.6564C124.202 97.5866 123.692 97.6753 123.242 97.6784C123.169 97.6911 123.023 97.7164 122.938 97.6562C122.367 97.8304 121.797 98.0047 121.227 98.1789C121.166 98.2644 121.021 98.2898 120.961 98.3753C120.621 98.5844 120.282 98.7935 120.016 98.9899C119.943 99.0026 119.883 99.0881 119.81 99.1008C119.544 99.2972 119.364 99.5538 119.097 99.7502C119.037 99.8358 118.964 99.8484 118.977 99.9213C118.904 99.934 118.917 100.007 118.844 100.02C117.903 101.084 117.304 102.389 117.253 103.825C117.244 104.202 117.234 104.579 117.237 105.029C117.25 105.101 117.202 105.26 117.215 105.333C116.987 107.475 117.573 109.55 118.884 111.049Z" fill="#8852DE"/>
<path d="M0.719513 122.731C1.32457 124.052 2.35423 125.225 3.47894 126.08C5.2151 127.43 7.60086 127.766 9.72686 127.471C12.2172 127.114 14.5176 125.663 16.0354 123.597C16.8783 122.399 17.6324 120.692 17.7561 119.244C17.8893 117.419 17.4776 115.914 16.8218 114.301C16.1661 112.688 14.2937 110.987 12.624 110.451C12.003 110.334 11.3694 110.144 10.7484 110.026C9.6775 109.912 8.71745 110.004 7.73522 110.4C7.09203 110.587 6.47416 110.92 5.8563 111.252C4.77587 111.515 3.66059 112.009 2.81458 112.757C2.48822 113.039 2.17452 113.394 1.86082 113.749C1.80062 113.834 1.72774 113.847 1.74041 113.92C1.54712 114.103 1.43939 114.347 1.2461 114.531C1.30631 114.446 1.37919 114.433 1.36652 114.36C0.510977 115.485 -0.0752926 116.863 -0.113426 118.371C-0.211763 119.965 -0.00909299 121.131 0.719513 122.731Z" fill="#8852DE"/>
<path d="M51.3446 53.6816C52.0072 54.683 52.8258 55.3781 54.0598 55.6521C55.3615 55.9143 56.7162 55.6788 57.6823 54.813C58.289 54.2888 58.8604 53.5614 59.1491 52.8134C60.5835 51.0288 60.7456 48.3488 59.1054 46.5404C58.6843 46.1251 58.2632 45.7098 57.7301 45.4536C57.468 45.1502 57.0822 44.9382 56.776 44.782C56.5492 44.6819 56.3342 44.6495 56.1192 44.6171C55.2917 44.2724 54.2845 44.0986 53.348 44.3312C51.1244 44.7875 49.3424 46.9815 49.2451 49.2315C49.2008 50.9838 49.9811 52.6625 51.3446 53.6816Z" fill="#8852DE"/>
<path d="M34.4047 49.3688C35.6504 49.7105 36.849 49.7813 38.1007 49.3543C38.9577 49.0658 39.6675 48.733 40.3302 48.1294C41.903 46.7394 42.713 44.5748 42.2803 42.4868C42.2214 42.1481 42.1066 41.8889 41.9917 41.6297C41.9564 41.4265 41.8534 41.2351 41.7503 41.0436C41.4971 40.3898 40.9729 39.7831 40.4045 39.3236C39.8244 38.7964 39.1883 38.3487 38.4403 38.06C37.5332 37.6594 36.47 37.5651 35.4658 37.8095C35.1271 37.8684 34.8679 37.9832 34.541 38.1098C34.2818 38.2247 34.0108 38.2718 33.7517 38.3866C32.7827 38.8342 31.9404 39.6087 31.3248 40.4833C30.7092 41.3579 30.3322 42.4005 30.2378 43.4636C30.2435 45.9051 31.9809 48.6736 34.4047 49.3688Z" fill="#8852DE"/>
<path d="M49.9144 33.4136C50.6386 36.777 53.557 38.7121 56.9114 38.3383C58.0748 38.2059 59.3058 38.0617 60.4809 37.9969C61.9947 37.8734 63.3554 36.8692 64.2508 35.597C64.5099 35.4822 64.6896 35.3114 64.9252 35.0611C65.9472 34.1158 66.6512 32.9466 66.7544 31.533C66.8693 30.1871 66.3953 28.6645 65.5177 27.6307C64.3899 26.3613 62.9733 25.8399 61.436 25.828C61.277 25.7161 61.0502 25.6159 60.903 25.5718C58.1023 24.314 54.8303 25.1619 52.9011 27.3117C52.1353 27.7239 51.4609 28.2599 50.9013 29.055C50.106 30.1005 49.5876 31.9352 49.9144 33.4136Z" fill="#8852DE"/>
<path d="M23.6986 23.1068C24.3994 24.7296 25.5508 26.1345 27.0615 27.1977C29.4469 28.8766 32.7424 29.7692 35.5873 29.2747C37.8904 28.8743 39.793 27.7759 41.2185 26.3418C42.8355 24.8046 44.0195 22.7844 44.2288 20.3753C44.2583 19.7421 44.2878 19.1089 44.2496 18.4875C44.2379 16.8147 43.7963 15.0771 42.8923 13.4897C40.1214 8.3886 33.8221 4.66852 28.0672 7.69267C22.3124 10.7168 20.2474 17.7053 23.6986 23.1068Z" fill="#8852DE"/>
<path d="M11.7697 41.9985C11.8846 42.2577 11.9994 42.5169 12.1142 42.776C13.2331 46.001 17.6389 47.2588 20.3131 44.9796C21.1673 44.2728 21.9301 43.4424 22.6134 42.556C22.849 42.3056 23.0729 41.9876 23.229 41.6813C23.7209 40.898 24.1892 39.9791 24.1716 39.075C24.2129 38.5095 24.1187 37.9677 24.0922 37.414C24.0304 36.6571 23.5151 35.6999 23.0027 35.1609C22.3077 34.3745 21.3771 33.8385 20.3581 33.5969C19.9282 33.5321 19.4982 33.4673 19.1478 33.4584C18.8533 33.37 18.547 33.2139 18.2643 33.1933C17.0303 32.9193 15.6402 32.9516 14.4916 33.57C13.2193 34.2796 11.9381 35.3398 11.4962 36.8122C11.3195 37.4012 11.1545 38.058 11.0573 38.7029C11.066 39.9575 11.3546 40.8146 11.7697 41.9985Z" fill="#8852DE"/>
<path d="M57.9152 15.2048C57.927 15.2726 57.9947 15.2608 58.0065 15.3285L58.0183 15.3963C58.5012 16.5684 59.2992 17.5463 60.6127 17.8762C61.293 18.1767 62.0734 18.2503 62.8185 18.1208C65.3808 17.6056 66.9684 15.0965 66.5327 12.5903C66.2501 10.9646 65.3136 9.5921 64.0974 8.6172C63.6998 8.33739 63.314 8.12531 62.8723 7.99275C62.7928 7.93679 62.7928 7.93679 62.7133 7.88083C62.0094 7.4449 61.2732 7.22397 60.4368 7.2298C58.6285 7.26501 57.0675 8.7227 56.8995 10.5663C56.8465 11.064 56.8729 11.6177 56.8994 12.1714C56.861 13.155 57.1967 14.283 57.9152 15.2048Z" fill="#8852DE"/>
<path d="M77.3001 47.6343C77.4914 49.1363 78.2688 50.3968 79.3937 51.248C79.9179 51.8547 80.5658 52.3702 81.4611 52.703C82.6508 53.1243 84.3237 53.1126 85.484 52.562C85.7992 52.3676 86.1143 52.1733 86.3617 51.9907C87.4544 51.4518 88.2849 50.6096 88.9212 49.4522C89.3571 48.7484 89.578 48.0121 89.6399 47.164C89.6812 46.5985 89.6547 46.0448 89.5605 45.503C89.4781 45.0288 89.3279 44.5664 89.11 44.1158L89.0983 44.0481C88.6478 42.6609 88.0618 41.2973 86.7336 40.4814C85.6322 39.7657 84.3865 39.424 83.0642 39.4445C80.0808 39.5444 77.6097 41.7883 77.3032 44.8423C77.2384 45.2723 77.2413 45.6905 77.3002 46.0292C77.2354 46.4592 77.2501 46.9451 77.3325 47.4193C77.2647 47.4311 77.2883 47.5665 77.3001 47.6343Z" fill="#8852DE"/>
<path d="M77.9847 25.8823C78.076 26.006 78.0878 26.0737 78.1791 26.1974C79.2274 27.4109 81.1328 28.3358 82.7232 27.85L82.7909 27.8382C83.9189 27.5025 84.8319 27.1345 85.583 26.2363C86.4018 25.3263 86.6787 24.5106 86.8967 23.3561C87.1589 22.0544 86.6171 20.5436 85.9428 19.4744C85.1771 18.2816 84.2672 17.4628 82.9861 16.9179C81.0248 16.0725 78.9014 16.3021 77.0312 17.1855C75.5439 17.8627 74.4688 19.3057 74.3332 20.9343C74.3154 23.2403 75.7878 25.2872 77.9847 25.8823Z" fill="#8852DE"/>
<path d="M5.4918 65.7C5.84809 66.5453 6.38403 67.2197 7.09964 67.7234C7.70333 68.3861 8.4072 68.822 9.2907 69.0871C10.1182 69.4318 10.9782 69.5614 11.9383 69.4643C12.8542 69.5144 13.723 69.2936 14.5565 68.8696C15.6491 68.3307 16.5032 67.624 17.1748 66.6698C17.8787 65.5007 18.2911 64.6614 18.462 63.236C18.6595 60.7592 17.5583 58.4384 15.5587 56.9716C14.8313 56.4002 14.0833 56.1115 13.2233 55.9819C12.3398 55.7168 11.4916 55.6549 10.5551 55.8874C9.95724 56.0612 9.42713 56.2231 8.82927 56.3968C7.98401 56.7531 7.30952 57.2891 6.79408 57.9369C6.36702 58.2903 6.03126 58.7674 5.78677 59.3682C5.35085 60.072 5.07395 60.8878 5.02381 61.8037C4.97963 61.9509 4.99143 62.0187 4.94725 62.1659C4.741 63.3881 4.95293 64.6074 5.4918 65.7Z" fill="#8852DE"/>
<path d="M31.1349 63.4754C31.182 63.7464 31.2851 63.9378 31.3322 64.2088C31.4588 64.5357 31.6531 64.8508 31.8357 65.0982C31.8475 65.1659 31.871 65.3014 31.9505 65.3574C32.4099 66.3941 33.2521 67.2246 34.2504 67.7489C34.648 68.0288 35.022 68.1731 35.5197 68.2261C35.9615 68.3587 36.3914 68.4235 36.8656 68.3411C37.3633 68.3941 37.8375 68.3117 38.2203 68.1056C38.8977 67.9878 39.5398 67.6669 40.0788 67.1545C40.2584 66.9837 40.4381 66.8129 40.6178 66.6421C40.9771 66.3005 41.3246 65.8911 41.6044 65.4936C42.0521 64.8575 42.2407 64.3362 42.4292 63.8149C42.4292 63.8149 42.4292 63.8149 42.441 63.8827C42.4292 63.8149 42.4969 63.8032 42.4851 63.7354C42.6059 63.226 42.7267 62.7165 42.8475 62.207C42.9771 61.347 42.8476 60.6019 42.5708 59.8126C42.4766 59.2707 42.2587 58.8201 41.9053 58.3931C41.5049 57.695 40.9925 57.1561 40.3564 56.7084C39.4022 56.0368 38.3597 55.6598 37.1493 55.5213C35.0789 55.2531 32.9614 56.3191 31.7862 57.9888C31.1706 58.8635 30.8377 59.7587 30.7434 60.8219C30.6815 61.6701 30.7668 62.5624 31.1349 63.4754Z" fill="#8852DE"/>
<path d="M-0.925368 25.573C-0.560217 26.0678 -0.150879 26.4153 0.314422 26.6834C1.56307 27.4433 2.82058 27.8527 4.34613 27.7969C7.04676 27.6763 9.58852 25.8388 10.3957 23.2561C11.7034 21.1445 12.2396 18.6089 11.8039 16.1026C11.486 14.2737 10.3316 12.4506 8.8209 11.3873C8.26431 10.9956 7.58403 10.6952 6.91552 10.4624C6.31474 10.218 5.5903 10.0648 4.94534 9.96752C2.25357 9.73761 -0.258659 10.942 -1.83737 13.1006C-3.13628 14.8616 -3.33671 16.9202 -3.53713 18.9788C-3.94962 21.4232 -2.86899 24.0267 -0.925368 25.573Z" fill="#8852DE"/>
<path d="M96.5163 39.7579C97.0523 40.4324 97.7002 40.9478 98.5277 41.2925C99.2315 41.7284 100.047 42.0053 100.963 42.0554C101.517 42.0289 102.138 41.9907 102.692 41.9642C103.843 41.7641 104.88 41.3047 105.79 40.5184C105.858 40.5067 105.858 40.5067 105.914 40.4272C106.329 40.006 106.677 39.5967 107.092 39.1756C107.348 38.6426 107.616 38.1773 107.873 37.6442C107.982 37.067 108.158 36.478 108.279 35.9685C108.285 35.1998 108.279 34.3634 108.15 33.6183C108.114 33.4151 108.079 33.2119 108.044 33.0087C107.985 32.67 107.847 32.2754 107.72 31.9485C107.614 31.3388 107.384 30.8205 106.963 30.4052C106.781 30.1578 106.586 29.8426 106.404 29.5953C105.697 28.7411 104.743 28.0696 103.7 27.6925C103.111 27.5158 102.522 27.339 101.957 27.2978L101.889 27.3095C101.459 27.2447 100.985 27.3271 100.567 27.3301C100.499 27.3418 100.364 27.3654 100.284 27.3094C99.7539 27.4714 99.2237 27.6333 98.6936 27.7952C98.6376 27.8748 98.5022 27.8983 98.4462 27.9778C98.1311 28.1722 97.8159 28.3665 97.5685 28.5491C97.5008 28.5609 97.4449 28.6404 97.3771 28.6522C97.1297 28.8347 96.9618 29.0733 96.7144 29.2558C96.6585 29.3354 96.5907 29.3471 96.6025 29.4149C96.5348 29.4266 96.5465 29.4944 96.4788 29.5062C95.6041 30.4956 95.0473 31.709 95.0001 33.0431C94.9913 33.3935 94.9824 33.744 94.9853 34.1622C94.9971 34.2299 94.9529 34.3772 94.9647 34.4449C94.7525 36.4358 95.2972 38.3648 96.5163 39.7579Z" fill="#8852DE"/>
<path d="M61.6603 62.8445C62.5879 64.5675 63.8306 66.096 65.6329 66.8295C66.0187 67.0416 66.4045 67.2536 66.7785 67.398C67.3558 67.507 67.9447 67.6837 68.522 67.7927C69.1434 67.7545 69.7648 67.7163 70.398 67.7458C71.3581 67.6486 72.2033 67.2924 72.9338 66.6769C73.5198 66.4354 73.9351 66.0143 74.2709 65.5373C74.7657 65.1721 75.1015 64.695 75.2782 64.106C75.614 63.629 75.8585 63.0282 75.8997 62.4627C76.0765 61.8737 76.1737 61.2288 76.1355 60.6074C76.3122 60.0184 76.3535 59.4529 76.2475 58.8433C76.3124 58.4133 76.2417 58.0069 76.1711 57.6005C75.9856 56.9349 75.7323 56.281 75.5469 55.6154C75.167 54.6347 74.5516 53.9043 73.7447 53.2769C73.3118 52.7939 72.7552 52.4022 72.1544 52.1577C71.2915 51.6098 70.3285 51.2887 69.3449 51.2504C67.943 51.2149 66.5883 51.4504 65.2806 51.9569C64.2999 52.3367 63.5695 52.9522 62.9421 53.7591C62.2235 54.4423 61.6639 55.2374 61.3428 56.2004C60.5327 58.365 60.6179 60.8624 61.6603 62.8445Z" fill="#8852DE"/>
<path d="M-13.3198 50.6168C-12.7573 51.8449 -11.8003 52.9347 -10.7548 53.7299C-9.14102 54.9847 -6.92341 55.297 -4.94726 55.0232C-2.63241 54.6906 -0.494205 53.342 0.916623 51.4219C1.70009 50.3087 2.40113 48.7214 2.51609 47.3755C2.6399 45.6791 2.25717 44.2802 1.64765 42.7811C1.03813 41.282 -0.702288 39.7004 -2.2543 39.2026C-2.83152 39.0936 -3.4205 38.9168 -3.99772 38.8078C-4.99315 38.7017 -5.88553 38.7871 -6.79853 39.1551C-7.39639 39.3288 -7.97071 39.638 -8.54502 39.9472C-9.5493 40.1916 -10.586 40.6509 -11.3724 41.3459C-11.6757 41.608 -11.9673 41.9378 -12.2589 42.2676C-12.3149 42.3471 -12.3826 42.3589 -12.3708 42.4267C-12.5505 42.5975 -12.6506 42.8242 -12.8303 42.995C-12.7743 42.9155 -12.7066 42.9037 -12.7184 42.836C-13.5136 43.8814 -14.0585 45.1625 -14.094 46.5643C-14.1854 48.0457 -13.997 49.1295 -13.3198 50.6168Z" fill="#8852DE"/>
</g>
<defs>
<clipPath id="clip0_390_4522">
<rect width="312" height="117" fill="white"/>
</clipPath>
</defs>
</svg>
