<svg width="285" height="411" viewBox="0 0 285 411" fill="none" xmlns="http://www.w3.org/2000/svg">
<g clip-path="url(#clip0_390_18522)">
<path d="M226.16 321.427C226.266 319.335 225.839 317.51 224.396 315.843C222.846 314.123 220.709 313.045 218.464 313.254C217.075 313.359 215.526 313.784 214.35 314.533C210.503 315.543 207.511 319.132 207.939 323.371C208.099 324.391 208.259 325.411 208.74 326.324C208.794 327.022 209.115 327.72 209.382 328.257C209.596 328.633 209.863 328.902 210.13 329.171C210.932 330.514 212.161 331.804 213.71 332.452C217.291 334.123 222.046 332.9 224.504 329.847C226.374 327.437 227.015 324.273 226.16 321.427Z" fill="#8852DE"/>
<path d="M245.357 345.066C243.967 343.292 242.364 341.947 240.173 341.245C238.677 340.759 237.341 340.487 235.792 340.645C232.159 340.958 228.792 343.15 227.243 346.527C226.976 347.063 226.869 347.546 226.763 348.028C226.602 348.35 226.549 348.725 226.495 349.101C226.175 350.28 226.282 351.675 226.603 352.91C226.87 354.252 227.297 355.541 228.046 356.723C228.901 358.227 230.29 359.464 231.946 360.165C232.481 360.435 232.962 360.543 233.549 360.705C234.03 360.814 234.458 361.029 234.939 361.138C236.755 361.517 238.732 361.307 240.496 360.721C242.259 360.135 243.862 359.065 245.091 357.673C247.602 354.245 248.028 348.559 245.357 345.066Z" fill="#8852DE"/>
<path d="M207.228 351.358C209.685 345.892 207.601 340.147 202.526 337.185C200.763 336.162 198.893 335.085 197.183 333.955C194.939 332.555 192.001 332.548 189.436 333.401C188.956 333.292 188.528 333.345 187.941 333.451C185.536 333.714 183.346 334.621 181.744 336.495C180.194 338.261 179.286 340.888 179.447 343.249C179.714 346.2 181.157 348.402 183.294 350.016C183.401 350.338 183.615 350.714 183.775 350.929C186.393 355.602 191.843 357.814 196.758 356.806C198.254 357.024 199.749 356.973 201.352 356.441C203.542 355.802 206.16 353.769 207.228 351.358Z" fill="#8852DE"/>
<path d="M233.195 393.045C233.889 390.041 233.729 386.876 232.713 383.815C231.11 378.983 227.422 374.306 222.934 372.043C219.3 370.21 215.506 369.773 212.033 370.301C208.186 370.775 204.446 372.377 201.667 375.536C200.973 376.393 200.278 377.25 199.69 378.16C197.981 380.517 196.805 383.412 196.432 386.577C195.043 396.607 200.014 408.368 211.182 410.11C222.349 411.852 232.448 404.203 233.195 393.045Z" fill="#8852DE"/>
<path d="M269.367 378.905C269.474 378.423 269.58 377.94 269.687 377.457C271.45 371.774 266.587 365.432 260.496 365.848C258.572 365.951 256.649 366.322 254.779 366.854C254.191 366.96 253.55 367.173 253.015 367.44C251.519 368.027 249.917 368.828 249.008 370.114C248.367 370.864 247.94 371.721 247.406 372.525C246.711 373.65 246.444 375.527 246.604 376.815C246.765 378.64 247.513 380.358 248.689 381.756C249.223 382.294 249.757 382.831 250.238 383.208C250.559 383.638 250.826 384.175 251.2 384.498C252.643 386.164 254.62 387.564 256.864 387.891C259.376 388.218 262.261 388.064 264.398 386.459C265.253 385.817 266.161 385.068 266.963 384.265C268.245 382.497 268.726 380.996 269.367 378.905Z" fill="#8852DE"/>
<path d="M177.239 368.605C177.292 368.498 177.185 368.444 177.239 368.336L177.292 368.229C177.827 366.084 177.719 363.884 176.223 362.056C175.582 360.928 174.566 360.014 173.391 359.421C169.276 357.48 164.466 359.347 162.489 363.313C161.207 365.886 161.101 368.783 161.795 371.414C162.063 372.219 162.383 372.917 162.864 373.562C162.918 373.724 162.918 373.724 162.971 373.885C163.506 375.227 164.308 376.302 165.483 377.163C168.048 378.994 171.736 378.573 173.873 376.163C174.461 375.52 174.995 374.717 175.529 373.913C176.598 372.574 177.293 370.644 177.239 368.605Z" fill="#8852DE"/>
<path d="M183.671 302.971C184.953 300.666 185.167 298.091 184.472 295.729C184.365 294.334 183.991 292.938 183.082 291.541C181.853 289.714 179.502 287.991 177.311 287.557C176.67 287.502 176.028 287.447 175.494 287.446C173.41 287.066 171.38 287.383 169.296 288.344C167.96 288.878 166.891 289.68 165.929 290.805C165.288 291.554 164.754 292.358 164.327 293.215C163.953 293.966 163.685 294.77 163.525 295.628L163.472 295.735C162.67 298.148 162.083 300.668 163.098 303.192C163.9 305.34 165.29 307.114 167.16 308.46C171.435 311.42 177.206 310.843 180.786 306.881C181.32 306.346 181.748 305.756 182.015 305.22C182.549 304.685 183.03 303.989 183.404 303.238C183.511 303.292 183.618 303.078 183.671 302.971Z" fill="#8852DE"/>
<path d="M160.235 332.787C160.235 332.519 160.289 332.412 160.289 332.143C160.075 329.353 158.365 326.076 155.64 325.105L155.533 325.051C153.609 324.349 151.953 323.916 149.976 324.394C147.892 324.819 146.663 325.674 145.167 327.066C143.458 328.618 142.656 331.299 142.496 333.498C142.336 335.966 142.764 338.059 143.993 340.154C145.863 343.377 149.069 345.262 152.596 345.968C155.374 346.564 158.366 345.659 160.236 343.517C162.64 340.304 162.693 335.904 160.235 332.787Z" fill="#8852DE"/>
<path d="M302.618 352.16C302.992 350.604 302.938 349.102 302.457 347.652C302.297 346.096 301.762 344.754 300.8 343.464C299.999 342.121 298.93 341.045 297.487 340.184C296.258 339.161 294.815 338.568 293.212 338.296C291.129 337.916 289.205 338.019 287.281 338.658C285.091 339.565 283.648 340.313 281.939 342.134C279.107 345.4 278.252 349.797 279.535 353.932C279.963 355.488 280.711 356.67 281.78 357.746C282.742 359.036 283.864 360.004 285.413 360.651C286.429 361.029 287.337 361.353 288.352 361.731C289.902 362.11 291.398 362.06 292.787 361.687C293.749 361.636 294.711 361.316 295.672 360.728C297.008 360.195 298.237 359.339 299.252 358.107C299.466 357.947 299.519 357.84 299.733 357.679C301.282 356.18 302.244 354.251 302.618 352.16Z" fill="#8852DE"/>
<path d="M264.508 328.66C264.722 328.231 264.775 327.856 264.989 327.427C265.149 326.837 265.203 326.194 265.203 325.657C265.256 325.55 265.363 325.335 265.309 325.174C265.737 323.244 265.416 321.204 264.561 319.432C264.294 318.626 263.919 318.035 263.278 317.444C262.797 316.799 262.263 316.261 261.515 315.884C260.873 315.292 260.125 314.915 259.377 314.806C258.308 314.267 257.079 314.049 255.797 314.207C255.369 314.26 254.942 314.313 254.515 314.365C253.66 314.471 252.751 314.683 251.95 314.95C250.667 315.376 249.866 315.911 249.064 316.446C249.064 316.446 249.064 316.446 249.118 316.339C249.064 316.446 248.958 316.392 248.904 316.499C248.209 317.088 247.515 317.676 246.82 318.265C245.752 319.336 245.164 320.515 244.737 321.909C244.309 322.766 244.149 323.624 244.203 324.59C244.042 325.985 244.203 327.273 244.63 328.562C245.272 330.495 246.341 332.107 247.89 333.559C250.509 336.086 254.57 336.793 257.936 335.674C259.7 335.088 261.089 334.179 262.318 332.787C263.279 331.662 264.081 330.322 264.508 328.66Z" fill="#8852DE"/>
<path d="M270.124 415.141C270.124 414.068 269.91 413.156 269.536 412.296C268.574 409.933 267.238 408.052 265.047 406.545C261.145 403.907 255.695 403.841 251.901 406.623C247.894 408.223 244.527 411.22 242.551 415.186C241.108 418.081 240.841 421.836 241.857 424.897C242.231 426.024 242.872 427.152 243.567 428.173C244.155 429.141 245.01 430.108 245.812 430.915C249.339 434.035 254.095 434.958 258.53 433.573C262.163 432.454 264.568 429.777 266.972 427.099C270.071 424.102 271.246 419.329 270.124 415.141Z" fill="#8852DE"/>
<path d="M148.69 294.081C148.636 292.579 148.262 291.183 147.46 289.84C146.926 288.497 146.071 287.261 144.841 286.239C144.04 285.701 143.131 285.108 142.33 284.57C140.513 283.654 138.589 283.22 136.505 283.376C136.398 283.323 136.398 283.323 136.238 283.376C135.223 283.535 134.314 283.747 133.299 283.906C132.391 284.387 131.536 284.76 130.627 285.241C129.879 285.937 129.024 286.579 128.33 287.168C127.528 288.239 126.673 289.417 126.086 290.596C125.926 290.918 125.765 291.24 125.605 291.561C125.338 292.097 125.124 292.794 124.964 293.384C124.483 294.349 124.269 295.314 124.43 296.334C124.43 296.87 124.376 297.514 124.377 298.051C124.484 299.983 125.125 301.916 126.194 303.528C126.835 304.388 127.476 305.248 128.225 305.893L128.331 305.947C128.866 306.485 129.614 306.862 130.202 307.293C130.309 307.346 130.522 307.454 130.576 307.615C131.484 307.939 132.393 308.263 133.301 308.587C133.462 308.534 133.675 308.642 133.836 308.589C134.477 308.644 135.118 308.699 135.652 308.7C135.759 308.754 135.92 308.701 136.027 308.754C136.561 308.756 137.042 308.596 137.576 308.597C137.736 308.544 137.843 308.598 137.897 308.49C138.004 308.544 138.057 308.437 138.164 308.491C140.408 308.013 142.439 306.891 143.881 305.07C144.255 304.588 144.629 304.106 145.057 303.517C145.11 303.409 145.324 303.249 145.377 303.142C147.728 300.572 148.957 297.301 148.69 294.081Z" fill="#8852DE"/>
<path d="M221.224 297.863C221.705 294.484 221.544 291.05 219.781 288.148C219.46 287.45 219.139 286.752 218.765 286.161C218.071 285.408 217.429 284.548 216.735 283.795C215.826 283.203 214.918 282.611 214.063 281.911C212.62 281.05 211.07 280.671 209.414 280.774C208.345 280.503 207.33 280.662 206.368 280.982C205.299 280.979 204.338 281.299 203.483 281.941C202.521 282.261 201.559 282.849 200.918 283.599C200.063 284.241 199.262 285.044 198.674 285.954C197.819 286.596 197.178 287.346 196.697 288.311C196.163 288.846 195.842 289.489 195.522 290.132C195.094 291.258 194.774 292.438 194.346 293.563C193.865 295.333 193.972 296.997 194.454 298.715C194.561 299.842 194.935 300.969 195.523 301.936C196.164 303.601 197.179 305.052 198.515 306.128C200.439 307.635 202.577 308.713 204.928 309.362C206.691 309.849 208.348 309.745 210.058 309.266C211.767 309.055 213.37 308.522 214.813 307.506C218.179 305.314 220.637 301.725 221.224 297.863Z" fill="#8852DE"/>
<path d="M313.311 392.858C313.792 390.552 313.578 388.03 312.936 385.829C311.974 382.393 309.196 379.651 306.15 377.98C302.57 376.041 298.189 375.709 294.235 376.934C291.991 377.68 289.373 379.177 287.823 380.944C285.9 383.193 284.992 385.551 284.298 388.286C283.603 391.02 284.405 395.046 286.062 397.357C286.756 398.109 287.397 398.969 288.092 399.722C289.375 400.905 290.71 401.713 292.367 402.146C293.382 402.524 294.504 402.687 295.626 402.851C297.283 403.552 299.206 403.985 301.023 403.829C301.717 403.776 302.466 403.617 303.214 403.458C303.374 403.405 303.481 403.459 303.534 403.351C303.962 403.299 304.336 403.085 304.763 403.032C304.603 403.085 304.496 403.032 304.442 403.139C306.633 402.5 308.717 401.271 310.213 399.343C311.869 397.361 312.724 395.646 313.311 392.858Z" fill="#8852DE"/>
<path d="M33.0714 358.973C33.2663 361.06 33.9515 362.804 35.6184 364.245C37.3988 365.723 39.6685 366.48 41.8589 365.948C43.2185 365.644 44.6905 364.999 45.7461 364.088C49.4074 362.53 51.8525 358.546 50.8204 354.412C50.5152 353.426 50.2101 352.44 49.6031 351.606C49.45 350.923 49.0324 350.279 48.6909 349.786C48.4254 349.444 48.1224 349.217 47.8194 348.99C46.8334 347.776 45.432 346.677 43.8058 346.261C40.0234 345.125 35.4938 347.024 33.5004 350.401C31.9963 353.057 31.8166 356.281 33.0714 358.973Z" fill="#8852DE"/>
<path d="M10.6842 338.364C12.3136 339.918 14.0928 341.017 16.3613 341.395C17.9114 341.66 19.272 341.735 20.7825 341.355C24.3324 340.518 27.348 337.862 28.3959 334.296C28.5832 333.727 28.6196 333.234 28.656 332.74C28.7684 332.399 28.7674 332.02 28.7663 331.64C28.914 330.427 28.6078 329.061 28.1132 327.886C27.656 326.596 27.0479 325.383 26.138 324.321C25.076 322.956 23.5237 321.933 21.7841 321.479C21.2167 321.29 20.7253 321.252 20.1204 321.176C19.6291 321.139 19.1752 320.987 18.6838 320.95C16.8318 320.837 14.9059 321.331 13.2456 322.166C11.5852 323.001 10.1529 324.292 9.13701 325.848C7.14487 329.604 7.53897 335.293 10.6842 338.364Z" fill="#8852DE"/>
<path d="M47.5111 326.611C45.865 332.376 48.7519 337.76 54.199 339.957C56.0903 340.714 58.0951 341.509 59.949 342.381C62.3702 343.441 65.2783 343.023 67.693 341.808C68.1843 341.845 68.5996 341.731 69.1658 341.541C71.5067 340.933 73.5435 339.719 74.86 337.632C76.139 335.66 76.6602 332.929 76.1624 330.616C75.4741 327.734 73.7305 325.763 71.3842 324.475C71.2322 324.172 70.9668 323.83 70.7773 323.641C67.5158 319.395 61.8065 317.995 57.0884 319.704C55.5771 319.705 54.1043 319.971 52.5951 320.73C50.5197 321.68 48.2217 324.07 47.5111 326.611Z" fill="#8852DE"/>
<path d="M15.8352 289.121C15.5794 292.194 16.1929 295.304 17.6372 298.186C19.9176 302.737 24.2375 306.831 29.0037 308.422C32.8621 309.709 36.6786 309.594 40.0391 308.568C43.7775 307.542 47.2482 305.416 49.5435 301.887C50.1076 300.938 50.6718 299.99 51.1225 299.003C52.4756 296.423 53.2228 293.388 53.1382 290.202C53.0715 280.074 46.4647 269.153 35.1648 269.046C23.865 268.938 14.972 277.97 15.8352 289.121Z" fill="#8852DE"/>
<path d="M-17.9312 308.354C-17.9676 308.847 -18.004 309.34 -18.0404 309.834C-18.9684 315.713 -13.2462 321.286 -7.27908 319.993C-5.39067 319.613 -3.54085 318.967 -1.767 318.17C-1.20069 317.98 -0.596879 317.676 -0.106584 317.334C1.28937 316.537 2.76025 315.512 3.47426 314.108C4.00094 313.274 4.30065 312.363 4.71386 311.491C5.23946 310.277 5.23405 308.38 4.89038 307.128C4.46961 305.346 3.48251 303.753 2.11862 302.54C1.51269 302.086 0.906808 301.631 0.376887 301.328C-0.00209171 300.948 -0.343616 300.456 -0.760061 300.19C-2.42692 298.75 -4.58407 297.651 -6.85146 297.652C-9.38327 297.691 -12.2159 298.262 -14.1 300.159C-14.8536 300.918 -15.6447 301.791 -16.3223 302.702C-17.3372 304.637 -17.5972 306.192 -17.9312 308.354Z" fill="#8852DE"/>
<path d="M74.7119 305.201C74.6744 305.315 74.7879 305.353 74.7504 305.467L74.713 305.581C74.4925 307.781 74.9144 309.943 76.6574 311.535C77.454 312.559 78.59 313.317 79.8384 313.734C84.1886 315.059 88.6789 312.515 90.0653 308.304C90.9646 305.572 90.654 302.689 89.5886 300.186C89.2085 299.428 88.791 298.783 88.2224 298.214C88.1464 298.063 88.1464 298.063 88.0704 297.911C87.3487 296.659 86.4012 295.712 85.1142 295.029C82.3133 293.589 78.7255 294.54 76.9569 297.234C76.4676 297.955 76.0543 298.828 75.641 299.7C74.776 301.18 74.366 303.191 74.7119 305.201Z" fill="#8852DE"/>
<path d="M77.763 371.081C76.8252 373.547 76.9837 376.126 78.0105 378.364C78.3167 379.729 78.8874 381.056 79.9869 382.308C81.4654 383.938 84.0392 385.302 86.2693 385.415C86.9117 385.377 87.554 385.338 88.0829 385.262C90.1995 385.337 92.1629 384.729 94.0868 383.476C95.3318 382.755 96.274 381.806 97.064 380.554C97.5907 379.719 98.004 378.846 98.3037 377.936C98.566 377.139 98.7148 376.304 98.7501 375.432L98.7876 375.318C99.2339 372.814 99.4533 370.235 98.0861 367.884C96.9844 365.874 95.3549 364.32 93.3111 363.258C88.6561 360.947 83.029 362.354 80.0561 366.793C79.6043 367.4 79.266 368.045 79.0787 368.614C78.6269 369.222 78.2511 369.98 77.9888 370.777C77.8754 370.739 77.8004 370.967 77.763 371.081Z" fill="#8852DE"/>
<path d="M96.6774 338.182C96.7159 338.448 96.6784 338.561 96.717 338.827C97.3294 341.557 99.4919 344.553 102.328 345.12L102.441 345.158C104.445 345.574 106.146 345.763 108.033 345.003C110.034 344.282 111.127 343.257 112.407 341.663C113.876 339.88 114.284 337.111 114.127 334.911C113.931 332.446 113.207 330.436 111.69 328.54C109.376 325.621 105.934 324.219 102.343 324.031C99.5085 323.843 96.6781 325.172 95.1356 327.563C93.2184 331.091 93.7977 335.453 96.6774 338.182Z" fill="#8852DE"/>
<path d="M-5.91516 357.371C-6.06503 357.826 -6.0639 358.205 -6.21377 358.661C-6.28763 359.267 -6.248 359.912 -6.1709 360.443C-6.20837 360.557 -6.28333 360.785 -6.20732 360.936C-6.35287 362.909 -5.74257 364.881 -4.64196 366.512C-4.26188 367.27 -3.80686 367.801 -3.08741 368.294C-2.51891 368.862 -1.91299 369.317 -1.11861 369.582C-0.399162 370.075 0.39522 370.34 1.15105 370.34C2.28588 370.718 3.53315 370.756 4.7793 370.414C5.19468 370.3 5.6101 370.186 6.02548 370.072C6.85625 369.844 7.72443 369.502 8.47918 369.122C9.68679 368.515 10.403 367.869 11.1192 367.224C11.1192 367.224 11.1192 367.224 11.0818 367.338C11.1192 367.224 11.2327 367.262 11.2702 367.148C11.8729 366.465 12.4756 365.782 13.0784 365.099C13.9819 363.885 14.3941 362.633 14.6167 361.191C14.9164 360.281 14.9517 359.408 14.76 358.46C14.7183 357.056 14.3746 355.805 13.7665 354.591C12.8543 352.771 11.5653 351.33 9.82338 350.117C6.86958 347.995 2.74997 347.883 -0.419989 349.478C-2.08045 350.313 -3.32445 351.414 -4.3404 352.97C-5.13046 354.222 -5.73106 355.664 -5.91516 357.371Z" fill="#8852DE"/>
<path d="M-23.8766 272.607C-23.7224 273.669 -23.3798 274.541 -22.8862 275.338C-21.595 277.537 -20.003 279.205 -17.6186 280.38C-13.38 282.426 -7.97762 281.703 -4.62345 278.401C-0.888112 276.236 2.0121 272.783 3.39844 268.572C4.41009 265.499 4.1348 261.743 2.69046 258.861C2.15833 257.799 1.36176 256.775 0.527725 255.865C-0.192825 254.993 -1.17776 254.159 -2.08674 253.477C-6.02455 250.9 -10.8627 250.675 -15.052 252.687C-18.4865 254.32 -20.481 257.318 -22.4755 260.316C-25.1113 263.731 -25.5887 268.625 -23.8766 272.607Z" fill="#8852DE"/>
<path d="M113.654 374.81C113.923 376.289 114.494 377.616 115.48 378.83C116.202 380.081 117.225 381.181 118.588 382.014C119.458 382.431 120.442 382.886 121.313 383.303C123.242 383.947 125.208 384.097 127.247 383.641C127.361 383.679 127.361 383.679 127.512 383.603C128.493 383.299 129.362 382.957 130.343 382.653C131.173 382.046 131.965 381.552 132.795 380.945C133.435 380.148 134.189 379.389 134.792 378.706C135.431 377.53 136.107 376.239 136.52 374.987C136.632 374.646 136.744 374.305 136.857 373.963C137.044 373.394 137.155 372.673 137.229 372.066C137.566 371.042 137.639 370.056 137.334 369.069C137.257 368.538 137.217 367.894 137.14 367.363C136.757 365.466 135.845 363.646 134.556 362.205C133.798 361.447 133.04 360.688 132.207 360.158L132.093 360.12C131.487 359.665 130.693 359.4 130.049 359.059C129.936 359.021 129.709 358.945 129.633 358.794C128.688 358.604 127.742 358.415 126.797 358.226C126.646 358.302 126.419 358.226 126.268 358.302C125.626 358.341 124.983 358.379 124.454 358.455C124.341 358.417 124.19 358.493 124.076 358.455C123.548 358.531 123.095 358.759 122.566 358.835C122.415 358.911 122.301 358.873 122.264 358.987C122.15 358.949 122.113 359.063 121.999 359.025C119.848 359.823 118 361.227 116.834 363.239C116.533 363.77 116.232 364.301 115.894 364.946C115.856 365.06 115.668 365.25 115.63 365.363C113.673 368.247 112.927 371.662 113.654 374.81Z" fill="#8852DE"/>
<path d="M41.3351 381.575C41.3449 384.989 41.9969 388.365 44.1585 390.981C44.5761 391.626 44.9936 392.27 45.4486 392.801C46.2441 393.446 47.0021 394.204 47.7976 394.848C48.7814 395.303 49.7653 395.758 50.7117 396.326C52.263 396.97 53.8507 397.121 55.4748 396.779C56.5711 396.892 57.5528 396.588 58.4585 396.132C59.5163 395.98 60.422 395.524 61.1757 394.765C62.0814 394.31 62.9485 393.589 63.4752 392.754C64.2289 391.995 64.9065 391.084 65.3572 390.098C66.1109 389.338 66.6376 388.504 66.9748 387.479C67.4266 386.872 67.6514 386.189 67.8762 385.506C68.1374 384.33 68.2851 383.116 68.5463 381.94C68.7679 380.12 68.4231 378.489 67.7004 376.858C67.4328 375.758 66.9006 374.696 66.1801 373.824C65.3065 372.269 64.0934 370.98 62.6171 370.109C60.4973 368.896 58.2276 368.138 55.8081 367.836C53.9934 367.61 52.3693 367.952 50.7463 368.673C49.0848 369.13 47.5753 369.889 46.2938 371.103C43.2781 373.76 41.3618 377.668 41.3351 381.575Z" fill="#8852DE"/>
<path d="M22.0714 211.254C22.2663 213.341 22.9515 215.085 24.6184 216.526C26.3988 218.004 28.6685 218.762 30.8589 218.229C32.2185 217.925 33.6905 217.28 34.7461 216.369C38.4074 214.811 40.8525 210.827 39.8204 206.693C39.5152 205.707 39.2101 204.721 38.6031 203.887C38.45 203.204 38.0324 202.56 37.6909 202.067C37.4254 201.726 37.1224 201.498 36.8194 201.271C35.8334 200.057 34.432 198.958 32.8058 198.542C29.0234 197.406 24.4938 199.305 22.5004 202.682C20.9963 205.338 20.8166 208.562 22.0714 211.254Z" fill="#8852DE"/>
<path d="M-0.315757 190.645C1.31362 192.199 3.09284 193.298 5.36129 193.676C6.91141 193.941 8.27204 194.016 9.78254 193.636C13.3324 192.799 16.348 190.143 17.3959 186.577C17.5832 186.008 17.6196 185.515 17.656 185.022C17.7684 184.68 17.7674 184.301 17.7663 183.922C17.914 182.708 17.6078 181.342 17.1132 180.167C16.656 178.877 16.0479 177.664 15.138 176.602C14.076 175.238 12.5237 174.214 10.7841 173.76C10.2167 173.571 9.72529 173.533 9.12044 173.457C8.62907 173.42 8.17515 173.268 7.68378 173.231C5.83177 173.118 3.90592 173.612 2.24556 174.447C0.585204 175.283 -0.847108 176.573 -1.86299 178.129C-3.85513 181.885 -3.46103 187.574 -0.315757 190.645Z" fill="#8852DE"/>
<path d="M36.5111 178.892C34.865 184.657 37.7519 190.041 43.199 192.238C45.0903 192.995 47.0951 193.79 48.949 194.662C51.3702 195.722 54.2783 195.304 56.693 194.089C57.1843 194.126 57.5996 194.012 58.1658 193.823C60.5067 193.215 62.5435 192 63.86 189.913C65.139 187.941 65.6602 185.21 65.1624 182.897C64.4741 180.015 62.7305 178.044 60.3842 176.756C60.2322 176.453 59.9668 176.112 59.7773 175.922C56.5158 171.676 50.8065 170.276 46.0884 171.985C44.5771 171.986 43.1043 172.252 41.5951 173.011C39.5197 173.961 37.2217 176.351 36.5111 178.892Z" fill="#8852DE"/>
<path d="M4.83516 141.402C4.57938 144.475 5.19288 147.585 6.63716 150.467C8.91759 155.018 13.2375 159.112 18.0037 160.703C21.8621 161.99 25.6786 161.875 29.0391 160.849C32.7775 159.823 36.2482 157.697 38.5435 154.168C39.1076 153.219 39.6718 152.271 40.1225 151.284C41.4756 148.704 42.2228 145.669 42.1382 142.483C42.0715 132.355 35.4647 121.434 24.1648 121.327C12.865 121.219 3.97199 130.251 4.83516 141.402Z" fill="#8852DE"/>
<path d="M63.7119 157.482C63.6744 157.596 63.7879 157.634 63.7504 157.748L63.713 157.862C63.4925 160.062 63.9144 162.224 65.6574 163.817C66.454 164.84 67.59 165.598 68.8384 166.015C73.1886 167.34 77.6789 164.796 79.0653 160.585C79.9646 157.853 79.654 154.97 78.5886 152.467C78.2085 151.709 77.791 151.064 77.2224 150.495C77.1464 150.344 77.1464 150.344 77.0704 150.192C76.3487 148.941 75.4012 147.993 74.1142 147.31C71.3133 145.87 67.7255 146.821 65.9569 149.515C65.4676 150.236 65.0543 151.109 64.641 151.981C63.776 153.461 63.366 155.472 63.7119 157.482Z" fill="#8852DE"/>
<path d="M66.763 223.362C65.8252 225.828 65.9837 228.407 67.0105 230.645C67.3167 232.01 67.8874 233.338 68.9869 234.589C70.4654 236.219 73.0392 237.583 75.2693 237.696C75.9117 237.658 76.554 237.619 77.0829 237.543C79.1995 237.618 81.1629 237.01 83.0868 235.757C84.3318 235.036 85.274 234.087 86.064 232.835C86.5907 232 87.004 231.127 87.3037 230.217C87.566 229.42 87.7148 228.586 87.7501 227.713L87.7876 227.599C88.2339 225.095 88.4533 222.516 87.0861 220.165C85.9844 218.155 84.3549 216.601 82.3111 215.54C77.6561 213.228 72.029 214.635 69.0561 219.074C68.6043 219.681 68.266 220.326 68.0787 220.896C67.6269 221.503 67.2511 222.262 66.9888 223.058C66.8754 223.02 66.8004 223.248 66.763 223.362Z" fill="#8852DE"/>
<path d="M85.6774 190.463C85.7159 190.729 85.6784 190.842 85.717 191.108C86.3294 193.838 88.4919 196.834 91.3277 197.401L91.4412 197.439C93.4452 197.855 95.1462 198.044 97.0335 197.284C99.0342 196.563 100.127 195.538 101.407 193.944C102.876 192.161 103.284 189.392 103.127 187.192C102.931 184.727 102.207 182.717 100.69 180.821C98.3764 177.902 94.9337 176.5 91.3432 176.312C88.5085 176.124 85.6781 177.453 84.1356 179.844C82.2184 183.372 82.7977 187.734 85.6774 190.463Z" fill="#8852DE"/>
<path d="M-16.9152 209.652C-17.065 210.107 -17.0639 210.486 -17.2138 210.942C-17.2876 211.548 -17.248 212.193 -17.1709 212.724C-17.2084 212.838 -17.2833 213.066 -17.2073 213.217C-17.3529 215.19 -16.7426 217.162 -15.642 218.793C-15.2619 219.551 -14.8069 220.082 -14.0874 220.575C-13.5189 221.143 -12.913 221.598 -12.1186 221.863C-11.3992 222.356 -10.6048 222.621 -9.84895 222.621C-8.71412 222.999 -7.46685 223.037 -6.2207 222.695C-5.80532 222.581 -5.3899 222.467 -4.97452 222.353C-4.14375 222.125 -3.27557 221.783 -2.52082 221.403C-1.31321 220.796 -0.596964 220.15 0.119241 219.505C0.119241 219.505 0.119241 219.505 0.0817736 219.619C0.119241 219.505 0.232697 219.543 0.270164 219.429C0.872886 218.746 1.47564 218.063 2.07836 217.38C2.9819 216.166 3.39406 214.914 3.6167 213.472C3.91644 212.562 3.95171 211.689 3.76005 210.741C3.71826 209.337 3.37458 208.086 2.76645 206.872C1.85427 205.052 0.565257 203.611 -1.17662 202.398C-4.13042 200.276 -8.25003 200.164 -11.42 201.759C-13.0804 202.594 -14.3245 203.695 -15.3404 205.251C-16.1305 206.503 -16.7311 207.945 -16.9152 209.652Z" fill="#8852DE"/>
<path d="M102.654 227.091C102.923 228.57 103.494 229.897 104.48 231.111C105.202 232.362 106.225 233.462 107.588 234.295C108.458 234.712 109.442 235.167 110.313 235.584C112.242 236.228 114.208 236.378 116.247 235.922C116.361 235.96 116.361 235.96 116.512 235.884C117.493 235.58 118.362 235.238 119.343 234.934C120.173 234.327 120.965 233.833 121.795 233.226C122.435 232.429 123.189 231.67 123.792 230.987C124.431 229.811 125.107 228.52 125.52 227.268C125.632 226.927 125.744 226.586 125.857 226.244C126.044 225.675 126.155 224.954 126.229 224.347C126.566 223.323 126.639 222.337 126.334 221.35C126.257 220.819 126.217 220.175 126.14 219.644C125.757 217.747 124.845 215.927 123.556 214.486C122.798 213.728 122.04 212.97 121.207 212.439L121.093 212.401C120.487 211.946 119.693 211.681 119.049 211.34C118.936 211.302 118.709 211.226 118.633 211.075C117.688 210.885 116.742 210.696 115.797 210.507C115.646 210.583 115.419 210.507 115.268 210.583C114.626 210.622 113.983 210.66 113.454 210.736C113.341 210.698 113.19 210.774 113.076 210.736C112.548 210.812 112.095 211.04 111.566 211.116C111.415 211.192 111.301 211.154 111.264 211.268C111.15 211.23 111.113 211.344 110.999 211.306C108.848 212.104 107 213.508 105.834 215.52C105.533 216.051 105.232 216.582 104.894 217.227C104.856 217.341 104.668 217.531 104.63 217.644C102.673 220.528 101.927 223.943 102.654 227.091Z" fill="#8852DE"/>
<path d="M30.3351 233.856C30.3449 237.27 30.9969 240.646 33.1585 243.262C33.5761 243.907 33.9936 244.551 34.4486 245.082C35.2441 245.727 36.0021 246.485 36.7976 247.129C37.7814 247.584 38.7653 248.039 39.7117 248.607C41.263 249.251 42.8507 249.402 44.4748 249.06C45.5711 249.173 46.5528 248.869 47.4585 248.413C48.5163 248.261 49.422 247.805 50.1757 247.046C51.0814 246.591 51.9485 245.87 52.4752 245.035C53.2289 244.276 53.9065 243.365 54.3572 242.379C55.1109 241.619 55.6376 240.785 55.9748 239.76C56.4266 239.153 56.6514 238.47 56.8762 237.787C57.1374 236.611 57.2851 235.397 57.5463 234.221C57.7679 232.401 57.4231 230.77 56.7004 229.139C56.4328 228.039 55.9006 226.977 55.1801 226.105C54.3065 224.55 53.0934 223.261 51.6171 222.39C49.4973 221.177 47.2276 220.42 44.8081 220.117C42.9934 219.891 41.3693 220.233 39.7463 220.954C38.0848 221.411 36.5753 222.17 35.2938 223.384C32.2781 226.041 30.3618 229.949 30.3351 233.856Z" fill="#8852DE"/>
</g>
<defs>
<clipPath id="clip0_390_18522">
<rect width="285" height="411" fill="white"/>
</clipPath>
</defs>
</svg>
