<svg width="104" height="164" viewBox="0 0 104 164" fill="none" xmlns="http://www.w3.org/2000/svg">
<path d="M86.5026 11.4899C89.4398 16.155 88.1016 22.2962 83.531 25.3255L78.745 28.3406L77.8642 32.2156C77.4564 34.0097 75.6714 35.1336 73.8772 34.7258C72.083 34.318 70.9591 32.5329 71.3669 30.7388L72.2477 26.8639L69.2351 22.0762C66.423 17.3688 67.8709 11.2526 72.536 8.31541C77.2694 5.33525 83.5225 6.75653 86.5026 11.4899Z" fill="#D0ADFF"/>
<path d="M49.9869 37.7693C51.1694 43.149 56.4295 46.5801 61.8066 45.5294L65.7675 44.66C66.9599 44.3982 68.0196 45.4657 67.749 46.6562L66.3832 52.6649C65.9754 54.4591 67.0993 56.2442 68.8935 56.652C70.6877 57.0598 72.4728 55.9359 72.8806 54.1417L74.2463 48.133C74.5169 46.9425 75.9339 46.4379 76.896 47.1894L80.0919 49.6856C84.4866 52.9573 90.7129 52.137 94.1046 47.797C97.5461 43.3933 96.766 37.0337 92.3624 33.5923C88.0224 30.2005 81.7824 30.9092 78.3086 35.146L74.1053 40.5216C73.2374 41.6315 71.4691 41.2296 71.1662 39.8535L69.6995 33.1892C68.3984 27.8671 63.0778 24.5308 57.698 25.7133C52.2395 26.9131 48.7871 32.3108 49.9869 37.7693Z" fill="#D0ADFF"/>
<path d="M56.3056 69.732C50.9284 70.7827 45.6684 67.3516 44.4859 61.9718C43.286 56.5133 46.7384 51.1156 52.197 49.9158C57.5767 48.7333 62.8973 52.0697 64.1984 57.3918L65.6652 64.0561C65.968 65.4321 67.7363 65.8341 68.6042 64.7241L72.8075 59.3486C76.2813 55.1118 82.5213 54.4031 86.8614 57.7948C91.265 61.2362 92.045 67.5959 88.6036 71.9995C85.2118 76.3395 78.9855 77.1598 74.5908 73.8881L71.3949 71.3919C70.4328 70.6404 69.0158 71.145 68.7452 72.3355L67.3795 78.3442C66.9717 80.1384 65.1866 81.2623 63.3924 80.8545C61.5982 80.4467 60.4744 78.6616 60.8822 76.8674L62.2479 70.8587C62.5185 69.6682 61.4589 68.6007 60.2664 68.8625L56.3056 69.732Z" fill="#D0ADFF"/>
<path d="M50.9891 93.1224C45.6119 94.173 40.3519 90.742 39.1694 85.3622C37.9696 79.9037 41.4219 74.506 46.8805 73.3062C52.2602 72.1237 57.5808 75.46 58.8819 80.7822L60.3487 87.4464C60.6515 88.8225 62.4198 89.2244 63.2877 88.1145L67.491 82.739C70.9648 78.5021 77.2048 77.7934 81.5449 81.1852C85.9485 84.6266 86.7285 90.9863 83.2871 95.3899C79.8953 99.7299 73.669 100.55 69.2743 97.2785L66.0785 94.7823C65.1163 94.0308 63.6993 94.5354 63.4288 95.7259L62.063 101.735C61.6552 103.529 59.8701 104.653 58.076 104.245C56.2818 103.837 55.1579 102.052 55.5657 100.258L56.9314 94.2491C57.202 93.0586 56.1424 91.9911 54.9499 92.2529L50.9891 93.1224Z" fill="#D0ADFF"/>
<path d="M3.81768 28.6905L30.0418 20.6529C32.8925 19.786 35.9231 21.3785 36.7944 24.2147L41.1414 38.2546C42.0127 41.0908 40.4122 44.1061 37.5615 44.9729L27.9109 47.9317L33.6407 65.4108H26.6703L21.5846 49.8728L11.3468 53.0105C10.8165 53.1707 10.2861 53.2461 9.75577 53.2461C7.44494 53.2461 5.30456 51.7573 4.58479 49.4487L0.237782 35.4089C-0.633514 32.5727 0.967018 29.5574 3.81768 28.6905ZM10.5608 46.3487L34.4457 39.0272L30.8184 27.3148L6.93352 34.6362L10.5608 46.3487Z" fill="#F9FF85"/>
<path d="M6.13549 80.7414C6.50484 81.4481 6.69424 82.2208 6.65636 82.9934C6.0313 97.6458 14.1003 146.757 16.7331 157.819C16.9604 158.799 17.7938 159.572 18.8735 159.873C24.2338 161.381 28.2304 160.062 29.6889 159.43C30.0772 159.261 30.3613 158.959 30.4939 158.601L31.0622 156.491C31.1758 156.161 31.5546 155.935 31.9524 155.963L42.3795 156.726C42.8531 156.764 43.2414 157.094 43.2887 157.518C43.4402 159.044 43.8759 162.483 44.5578 162.841C48.6396 165.037 55.7615 163.586 57.201 162.766C57.9208 162.361 58.3281 158.856 58.4796 157.405C58.508 157.056 58.83 156.764 59.2467 156.745L69.2287 156.076C69.5792 156.038 69.9012 156.264 69.958 156.575L70.0148 157.716C70.1948 158.761 71.0945 159.864 72.2593 160.118C76.9662 161.136 82.9327 160.684 83.5578 158.422C84.145 156.274 85.5087 150.206 87.043 142.554C80.4609 143.026 73.9451 140.745 68.2438 137.768C53.5738 129.749 42.2659 116.519 36.2236 100.981C32.6911 100.03 30.0867 96.8166 30.0867 93.0098C30.0867 88.4492 33.8181 84.7367 38.3924 84.7367C42.9857 84.7367 46.7171 88.4492 46.7171 93.0098C46.7171 94.819 46.1299 96.4773 45.145 97.8342C51.1872 113.721 67.6566 132.934 85.253 134.96C86.4653 135.026 87.5639 134.969 88.5677 134.79C91.5794 122.032 93.0284 106.089 93.6061 95.1676C93.7198 92.9627 93.805 90.9556 93.8524 89.2313C93.8618 89.0428 93.8618 88.8544 93.8713 88.6753C93.966 85.0382 93.9281 82.7296 93.8145 82.4564C93.5777 81.891 94.0796 81.2597 94.4679 80.7508C98.0762 75.9547 96.7788 68.36 93.6724 68.36L6.17338 68.5956C5.43467 68.5956 4.74331 68.9725 4.42131 69.5661C1.87371 74.1832 5.08425 78.6778 6.13549 80.7414Z" fill="#7B48CC"/>
<path d="M30.0868 93.0101C30.0868 96.8168 32.6912 100.03 36.2238 100.982C42.266 116.52 53.5739 129.749 68.2439 137.768C73.9452 140.746 80.461 143.026 87.0431 142.555C87.545 140.105 88.0565 137.485 88.5679 134.79C87.564 134.969 86.4654 135.026 85.2532 134.96C67.6567 132.934 51.1873 113.721 45.1451 97.8345C46.13 96.4776 46.7172 94.8192 46.7172 93.0101C46.7172 88.4495 42.9858 84.7369 38.3925 84.7369C33.8182 84.7369 30.0868 88.4495 30.0868 93.0101Z" fill="#7B48CC"/>
<path d="M38.3942 96.9958C40.6103 96.9958 42.4097 95.2055 42.4097 93.01C42.4097 90.8145 40.6103 89.0242 38.3942 89.0242C36.1875 89.0242 34.3881 90.8145 34.3881 93.01C34.3881 95.2055 36.1875 96.9958 38.3942 96.9958ZM38.3942 84.7368C42.9874 84.7368 46.7189 88.4494 46.7189 93.01C46.7189 94.8191 46.1317 96.4775 45.1467 97.8344C51.189 113.721 67.6584 132.934 85.2548 134.96C86.467 135.026 87.5656 134.969 88.5695 134.79C88.901 134.743 89.223 134.677 89.5261 134.592C103.079 131.115 96.7427 105.448 93.6079 95.1678C93.7215 92.9628 93.8068 90.9558 93.8541 89.2314C93.8636 89.043 93.8636 88.8545 93.8731 88.6755C93.9204 87.4788 93.9299 84.4636 93.9299 84.2374C94.536 85.6979 95.4736 87.8463 95.4736 87.8463C97.2351 92.0112 98.9777 96.5341 100.332 100.859C102.719 108.557 104.641 116.793 103.798 125.057C103.107 133.113 98.2959 140.745 89.6681 142.234C89.2325 142.31 88.7968 142.385 88.3612 142.432C87.9255 142.489 87.4899 142.536 87.0448 142.555C80.4627 143.026 73.9469 140.745 68.2456 137.768C53.5756 129.749 42.2677 116.52 36.2254 100.982C32.6928 100.03 30.0884 96.8167 30.0884 93.01C30.0884 88.4494 33.8199 84.7368 38.3942 84.7368Z" fill="#F9FF85"/>
</svg>
