<svg width="175" height="257" viewBox="0 0 175 257" fill="none" xmlns="http://www.w3.org/2000/svg">
<path d="M137.812 6.86809C143.335 14.3016 141.888 24.7603 134.625 30.4252L126.999 36.0941L126.025 42.698C125.574 45.7558 122.73 47.869 119.672 47.4181C116.614 46.9671 114.501 44.1227 114.952 41.065L115.926 34.4611L110.261 26.832C104.942 19.3116 106.576 8.88044 114.009 3.35771C121.552 -2.24591 132.209 -0.674258 137.812 6.86809Z" fill="#D0ADFF"/>
<path d="M80.0526 55.6056C82.729 64.463 91.9826 69.5292 100.853 67.0739L107.374 65.1053C109.337 64.5127 111.25 66.1635 110.951 68.1924L109.441 78.4329C108.99 81.4906 111.103 84.335 114.161 84.786C117.219 85.2369 120.063 83.1237 120.514 80.0659L122.024 69.8255C122.323 67.7966 124.631 66.7682 126.34 67.9024L132.016 71.6697C139.799 76.581 150.121 74.4018 155.241 66.6941C160.435 58.8735 158.306 48.3229 150.485 43.1285C142.778 38.0092 132.418 40.0033 127.148 47.5487L120.804 57.0956C119.493 59.0669 116.48 58.6225 115.795 56.3569L112.476 45.3849C109.608 36.6394 100.266 31.7396 91.4082 34.416C82.4211 37.1316 77.337 46.6185 80.0526 55.6056Z" fill="#D0ADFF"/>
<path d="M94.7696 108.321C85.8995 110.777 76.6459 105.71 73.9695 96.8531C71.254 87.8659 76.338 78.3791 85.3252 75.6635C94.1825 72.9871 103.525 77.8868 106.393 86.6324L109.712 97.6044C110.397 99.87 113.41 100.314 114.72 98.3431L121.065 88.7962C126.335 81.2508 136.695 79.2567 144.402 84.376C152.223 89.5704 154.352 100.121 149.158 107.942C144.038 115.649 133.716 117.829 125.932 112.917L120.257 109.15C118.548 108.016 116.24 109.044 115.941 111.073L114.431 121.313C113.98 124.371 111.136 126.484 108.078 126.033C105.02 125.583 102.907 122.738 103.358 119.68L104.868 109.44C105.167 107.411 103.254 105.76 101.291 106.353L94.7696 108.321Z" fill="#D0ADFF"/>
<path d="M88.8907 148.185C80.0206 150.64 70.767 145.574 68.0906 136.716C65.375 127.729 70.4591 118.242 79.4462 115.527C88.3036 112.85 97.6465 117.75 100.514 126.496L103.833 137.468C104.518 139.733 107.531 140.178 108.842 138.206L115.186 128.66C120.456 121.114 130.816 119.12 138.524 124.239C146.344 129.434 148.473 139.984 143.279 147.805C138.159 155.513 127.837 157.692 120.054 152.781L114.378 149.013C112.669 147.879 110.361 148.907 110.062 150.936L108.552 161.177C108.101 164.235 105.257 166.348 102.199 165.897C99.1411 165.446 97.0279 162.601 97.4789 159.544L98.9891 149.303C99.2883 147.274 97.3755 145.624 95.4121 146.216L88.8907 148.185Z" fill="#D0ADFF"/>
<path d="M6.16394 36.7217L48.5053 23.6783C53.1079 22.2715 58.0011 24.8557 59.4079 29.4584L66.4266 52.2423C67.8334 56.8449 65.2492 61.7381 60.6465 63.1449L45.0648 67.9463L54.316 96.3115H43.0616L34.8503 71.0963L18.3205 76.1883C17.4642 76.4482 16.6079 76.5706 15.7516 76.5706C12.0205 76.5706 8.56466 74.1545 7.40253 70.4082L0.383873 47.6243C-1.02292 43.0216 1.56129 38.1285 6.16394 36.7217ZM17.0513 65.3774L55.6157 53.4961L49.7592 34.4892L11.1948 46.3704L17.0513 65.3774Z" fill="#F9FF85"/>
<path d="M9.90652 121.19C10.5029 122.337 10.8087 123.591 10.7475 124.845C9.7383 148.623 22.7664 228.32 27.0174 246.272C27.3844 247.862 28.73 249.116 30.4732 249.606C39.128 252.052 45.5809 249.911 47.9357 248.887C48.5627 248.612 49.0214 248.122 49.2355 247.541L50.153 244.116C50.3365 243.581 50.9481 243.214 51.5903 243.26L68.4259 244.498C69.1905 244.56 69.8174 245.095 69.8939 245.783C70.1385 248.26 70.842 253.841 71.9429 254.422C78.5334 257.985 90.0324 255.63 92.3567 254.3C93.5188 253.643 94.1763 247.954 94.421 245.599C94.4668 245.034 94.9867 244.56 95.6596 244.529L111.776 243.443C112.342 243.382 112.862 243.749 112.954 244.254L113.046 246.104C113.336 247.801 114.789 249.59 116.67 250.003C124.269 251.655 133.903 250.921 134.912 247.251C135.86 243.764 138.062 233.917 140.539 221.5C129.912 222.265 119.392 218.565 110.186 213.733C86.5001 200.72 68.2424 179.251 58.4866 154.036C52.783 152.491 48.578 147.277 48.578 141.099C48.578 133.698 54.6027 127.674 61.9883 127.674C69.4046 127.674 75.4293 133.698 75.4293 141.099C75.4293 144.035 74.4813 146.726 72.891 148.928C82.6468 174.709 109.238 205.888 137.649 209.176C139.606 209.283 141.38 209.191 143.001 208.901C147.864 188.196 150.203 162.324 151.136 144.601C151.32 141.023 151.457 137.766 151.534 134.968C151.549 134.662 151.549 134.356 151.564 134.065C151.717 128.163 151.656 124.417 151.472 123.973C151.09 123.056 151.901 122.031 152.528 121.205C158.353 113.422 156.259 101.098 151.243 101.098L9.9677 101.48C8.77499 101.48 7.65872 102.091 7.13882 103.055C3.02548 110.547 8.2092 117.841 9.90652 121.19Z" fill="#7B48CC"/>
<path d="M48.5783 141.1C48.5783 147.277 52.7834 152.492 58.487 154.036C68.2428 179.251 86.5005 200.72 110.187 213.733C119.392 218.565 129.912 222.265 140.54 221.501C141.35 217.525 142.176 213.274 143.001 208.901C141.381 209.191 139.607 209.283 137.65 209.176C109.238 205.889 82.6471 174.71 72.8913 148.929C74.4816 146.727 75.4297 144.036 75.4297 141.1C75.4297 133.699 69.4049 127.674 61.9887 127.674C54.603 127.674 48.5783 133.699 48.5783 141.1Z" fill="#7B48CC"/>
<path d="M61.9912 147.568C65.5694 147.568 68.4747 144.662 68.4747 141.1C68.4747 137.537 65.5694 134.631 61.9912 134.631C58.4284 134.631 55.523 137.537 55.523 141.1C55.523 144.662 58.4284 147.568 61.9912 147.568ZM61.9912 127.674C69.4075 127.674 75.4322 133.699 75.4322 141.1C75.4322 144.035 74.4841 146.727 72.8939 148.929C82.6497 174.71 109.241 205.888 137.652 209.176C139.609 209.283 141.383 209.191 143.004 208.901C143.539 208.824 144.059 208.717 144.548 208.58C166.43 202.937 156.2 161.284 151.139 144.601C151.322 141.023 151.46 137.766 151.537 134.968C151.552 134.662 151.552 134.356 151.567 134.066C151.644 132.124 151.659 127.23 151.659 126.863C152.637 129.234 154.151 132.72 154.151 132.72C156.995 139.479 159.809 146.818 161.996 153.837C165.849 166.33 168.953 179.694 167.592 193.105C166.476 206.179 158.708 218.565 144.778 220.981C144.074 221.103 143.371 221.225 142.668 221.302C141.964 221.394 141.261 221.47 140.542 221.501C129.915 222.265 119.394 218.565 110.189 213.733C86.503 200.72 68.2453 179.251 58.4895 154.036C52.7859 152.491 48.5809 147.277 48.5809 141.1C48.5809 133.699 54.6056 127.674 61.9912 127.674Z" fill="#F9FF85"/>
</svg>
