<svg width="312" height="117" viewBox="0 0 312 117" fill="none" xmlns="http://www.w3.org/2000/svg">
<g clip-path="url(#clip0_2150_279)">
<path d="M23.0727 97.238C23.265 99.315 23.9478 101.051 25.612 102.483C27.3896 103.953 29.6569 104.705 31.8466 104.172C33.2057 103.868 34.6776 103.224 35.7335 102.315C39.3944 100.761 41.8426 96.7908 40.8159 92.6759C40.5121 91.6944 40.2083 90.713 39.6026 89.8831C39.4504 89.2035 39.0338 88.5622 38.6931 88.0718C38.4281 87.7323 38.1256 87.5062 37.8231 87.2801C36.8391 86.0732 35.4398 84.9803 33.8151 84.5676C30.0364 83.441 25.5074 85.337 23.5114 88.7017C22.0052 91.348 21.8218 94.5586 23.0727 97.238Z" fill="#ECF26F"/>
<path d="M0.679489 76.7302C2.30613 78.2759 4.08306 79.3682 6.34976 79.742C7.89869 80.0038 9.25846 80.077 10.7685 79.6968C14.3173 78.8599 17.3343 76.211 18.3858 72.6591C18.5736 72.0922 18.6106 71.6012 18.6475 71.1101C18.7602 70.77 18.7596 70.3924 18.759 70.0147C18.908 68.8059 18.6036 67.4467 18.1106 66.2768C17.6552 64.9934 17.0489 63.7859 16.1407 62.7299C15.0809 61.3721 13.5307 60.3549 11.7926 59.9047C11.2257 59.7168 10.7347 59.6798 10.1303 59.6053C9.63921 59.5684 9.18573 59.4181 8.69468 59.3811C6.84386 59.271 4.91853 59.7652 3.25816 60.5989C1.59778 61.4326 0.164788 62.7192 -0.852322 64.2694C-2.84769 68.0118 -2.46042 73.6763 0.679489 76.7302Z" fill="#ECF26F"/>
<path d="M37.521 65.0352C35.869 70.7788 38.7484 76.1369 44.1907 78.3183C46.0803 79.0704 48.0834 79.8602 49.9355 80.7257C52.3544 81.7791 55.2618 81.3587 57.6769 80.1461C58.168 80.183 58.5832 80.069 59.1494 79.8792C61.49 79.2709 63.5274 78.0589 64.8458 75.9795C66.1266 74.0134 66.6507 71.2932 66.1558 68.9902C65.4711 66.121 63.7305 64.16 61.3867 62.8798C61.2351 62.5779 60.9702 62.2385 60.7811 62.05C57.5259 57.8255 51.8205 56.4377 47.1024 58.1453C45.5917 58.1478 44.1192 58.4147 42.6098 59.1726C40.5342 60.1203 38.2343 62.5036 37.521 65.0352Z" fill="#ECF26F"/>
<path d="M5.84654 27.7364C5.58735 30.796 6.19686 33.8919 7.63689 36.7599C9.91063 41.2882 14.2231 45.3598 18.9845 46.938C22.839 48.2156 26.6534 48.0958 30.013 47.0704C33.7503 46.0443 37.2213 43.9235 39.5192 40.4071C40.0841 39.462 40.649 38.5168 41.1006 37.5341C42.4559 34.9636 43.2062 31.9409 43.1253 28.7685C43.0704 18.6846 36.4804 7.81856 25.1876 7.72437C13.8948 7.63018 4.99685 16.634 5.84654 27.7364Z" fill="#ECF26F"/>
<path d="M64.7161 43.7259C64.6786 43.8393 64.7919 43.8769 64.7544 43.9903L64.7168 44.1036C64.4939 46.2945 64.913 48.4466 66.653 50.0299C67.4478 51.0483 68.5821 51.8017 69.8292 52.2151C74.1747 53.5296 78.6648 50.9915 80.0551 46.7969C80.957 44.0761 80.6499 41.2063 79.5882 38.7154C79.2093 37.9607 78.7927 37.3193 78.2253 36.7538C78.1495 36.6028 78.1495 36.6028 78.0737 36.4519C77.354 35.2068 76.4082 34.2642 75.1229 33.5865C72.3257 32.1561 68.7394 33.1064 66.9688 35.7909C66.479 36.5093 66.065 37.3786 65.6511 38.248C64.7849 39.7224 64.3728 41.7248 64.7161 43.7259Z" fill="#ECF26F"/>
<path d="M67.7728 109.286C66.8328 111.742 66.9882 114.31 68.0117 116.537C68.3161 117.896 68.8849 119.217 69.9822 120.461C71.4579 122.083 74.0285 123.438 76.257 123.548C76.899 123.509 77.5409 123.47 78.0696 123.394C80.1847 123.466 82.1476 122.858 84.0716 121.608C85.3168 120.889 86.2594 119.943 87.0504 118.695C87.5777 117.863 87.9917 116.994 88.2923 116.087C88.5553 115.293 88.705 114.462 88.7413 113.594L88.7789 113.48C89.2279 110.987 89.4501 108.418 88.0865 106.079C86.9879 104.079 85.3612 102.533 83.32 101.479C78.6706 99.1833 73.0456 100.59 70.0694 105.014C69.6172 105.619 69.2784 106.262 69.0905 106.829C68.6383 107.434 68.2619 108.19 67.9989 108.983C67.8855 108.946 67.8104 109.172 67.7728 109.286Z" fill="#ECF26F"/>
<path d="M86.6766 76.5469C86.7148 76.8112 86.6772 76.9246 86.7154 77.1889C87.3243 79.9072 89.4821 82.8872 92.3157 83.4489L92.4291 83.4865C94.4315 83.8985 96.1313 84.0845 98.0184 83.3259C100.019 82.605 101.112 81.5834 102.394 79.995C103.864 78.2174 104.275 75.4596 104.12 73.2693C103.927 70.8148 103.206 68.8143 101.692 66.9284C99.3832 64.0242 95.9439 62.6326 92.3557 62.4499C89.5228 62.2658 86.6924 63.5925 85.148 65.9745C83.2278 69.4901 83.8016 73.8325 86.6766 76.5469Z" fill="#ECF26F"/>
<path d="M-15.9062 95.6422C-16.0565 96.0957 -16.0558 96.4733 -16.2061 96.9268C-16.2807 97.5312 -16.2418 98.1732 -16.1654 98.7018C-16.2029 98.8152 -16.2781 99.0419 -16.2023 99.1929C-16.3501 101.157 -15.7425 103.12 -14.6444 104.742C-14.2655 105.497 -13.8114 106.025 -13.0929 106.515C-12.5255 107.08 -11.9205 107.532 -11.1269 107.795C-10.4085 108.285 -9.61489 108.548 -8.85954 108.547C-7.72586 108.923 -6.47943 108.958 -5.23367 108.616C-4.81841 108.502 -4.40313 108.388 -3.98788 108.274C-3.15737 108.046 -2.28934 107.705 -1.53462 107.326C-0.327074 106.72 0.389469 106.076 1.10597 105.433C1.10597 105.433 1.10597 105.433 1.06839 105.546C1.10597 105.433 1.21931 105.471 1.25689 105.357C1.86002 104.676 2.46318 103.996 3.06632 103.315C3.9707 102.105 4.38405 100.858 4.60823 99.422C4.90884 98.5151 4.94509 97.6464 4.75465 96.7025C4.71452 95.3051 4.37251 94.0594 3.76618 92.8518C2.85669 91.0405 1.57017 89.6075 -0.1692 88.4019C-3.11867 86.2919 -7.23554 86.1855 -10.4054 87.7772C-12.0657 88.6109 -13.3102 89.7082 -14.3273 91.2584C-15.1184 92.5061 -15.7203 93.9423 -15.9062 95.6422Z" fill="#ECF26F"/>
<path d="M103.658 113.002C103.925 114.474 104.493 115.795 105.477 117.002C106.197 118.247 107.219 119.341 108.58 120.169C109.449 120.583 110.432 121.035 111.301 121.449C113.228 122.088 115.192 122.235 117.231 121.779C117.345 121.816 117.345 121.816 117.495 121.74C118.477 121.437 119.345 121.095 120.326 120.791C121.156 120.186 121.949 119.693 122.779 119.088C123.419 118.294 124.173 117.537 124.776 116.856C125.416 115.684 126.094 114.399 126.507 113.152C126.62 112.812 126.733 112.472 126.846 112.132C127.034 111.565 127.146 110.847 127.22 110.243C127.558 109.222 127.632 108.24 127.328 107.259C127.252 106.73 127.213 106.088 127.137 105.559C126.756 103.672 125.846 101.86 124.56 100.427C123.803 99.6733 123.047 98.9192 122.215 98.3919L122.101 98.3543C121.496 97.9021 120.703 97.6391 120.06 97.3003C119.947 97.2627 119.72 97.1875 119.644 97.0366C118.7 96.8494 117.755 96.6621 116.811 96.4749C116.66 96.5507 116.433 96.4755 116.282 96.5513C115.64 96.5902 114.998 96.629 114.469 96.7054C114.356 96.6679 114.205 96.7437 114.092 96.7061C113.563 96.7825 113.11 97.0099 112.582 97.0863C112.431 97.1621 112.317 97.1245 112.28 97.2379C112.166 97.2003 112.129 97.3137 112.016 97.2761C109.864 98.0729 108.016 99.4734 106.848 101.477C106.547 102.006 106.246 102.536 105.907 103.178C105.869 103.292 105.681 103.481 105.643 103.594C103.684 106.468 102.935 109.868 103.658 113.002Z" fill="#ECF26F"/>
<path d="M31.3444 119.734C31.3502 123.133 31.9979 126.493 34.1551 129.095C34.5716 129.737 34.9882 130.378 35.4423 130.906C36.2365 131.547 36.9931 132.301 37.7873 132.942C38.7701 133.393 39.7528 133.845 40.6979 134.41C42.2475 135.049 43.834 135.197 45.4575 134.855C46.5529 134.966 47.5343 134.662 48.44 134.208C49.4973 134.055 50.4029 133.6 51.157 132.843C52.0627 132.389 52.9301 131.67 53.4574 130.838C54.2115 130.081 54.8898 129.174 55.3413 128.191C56.0954 127.434 56.6228 126.603 56.961 125.582C57.4132 124.977 57.6386 124.297 57.8641 123.617C58.1265 122.445 58.2755 121.237 58.5379 120.065C58.7614 118.252 58.4188 116.629 57.6984 115.006C57.4322 113.911 56.9017 112.855 56.1826 111.987C55.3113 110.44 54.1006 109.158 52.6261 108.292C50.5091 107.087 48.2418 106.335 45.8241 106.037C44.0109 105.814 42.3874 106.156 40.7646 106.877C39.1036 107.333 37.5942 108.091 36.3121 109.301C33.2952 111.95 31.3756 115.844 31.3444 119.734Z" fill="#ECF26F"/>
<path d="M197.434 38.2901C198.275 36.3813 198.522 34.5321 197.763 32.4716C196.924 30.3232 195.307 28.5648 193.135 27.9663C191.799 27.5721 190.199 27.4203 188.835 27.7011C184.88 27.2813 180.811 29.5616 179.709 33.6571C179.498 34.6625 179.287 35.668 179.413 36.6876C179.216 37.3555 179.268 38.1184 179.328 38.7126C179.395 39.1381 179.549 39.4827 179.704 39.8273C179.977 41.3602 180.669 42.9953 181.889 44.1454C184.644 46.966 189.524 47.5092 192.903 45.538C195.506 43.9568 197.226 41.2398 197.434 38.2901Z" fill="#ECF26F"/>
<path d="M207.043 67.0946C206.372 64.9533 205.35 63.1353 203.55 61.7073C202.324 60.7259 201.171 60.0013 199.666 59.6C196.158 58.6073 192.234 59.4567 189.589 62.0504C189.15 62.4546 188.879 62.8658 188.608 63.2771C188.344 63.5196 188.161 63.8499 187.978 64.1803C187.261 65.1645 186.866 66.5004 186.729 67.7625C186.503 69.1054 186.447 70.4554 186.727 71.8197C186.994 73.5214 187.855 75.1636 189.155 76.4016C189.559 76.8412 189.971 77.1121 190.463 77.4708C190.874 77.7417 191.197 78.0934 191.609 78.3643C193.173 79.3598 195.096 79.8632 196.952 79.9412C198.808 80.0192 200.686 79.5909 202.328 78.7302C205.89 76.4286 208.304 71.2894 207.043 67.0946Z" fill="#ECF26F"/>
<path d="M169.16 59.4169C173.394 55.1995 173.481 49.1173 169.784 44.5666C168.498 42.991 167.131 41.3276 165.932 39.6713C164.33 37.5753 161.584 36.5301 158.884 36.4167C158.473 36.1458 158.055 36.0437 157.468 35.9345C155.126 35.329 152.757 35.3985 150.594 36.5755C148.52 37.6717 146.74 39.7946 146.053 42.0479C145.258 44.8884 145.827 47.4481 147.253 49.7057C147.239 50.0432 147.306 50.4686 147.379 50.7253C148.172 55.9992 152.484 59.9841 157.438 60.7839C158.76 61.5157 160.176 61.9978 161.864 62.0687C164.138 62.2489 167.306 61.2831 169.16 59.4169Z" fill="#ECF26F"/>
<path d="M178.723 107.407C180.437 104.859 181.408 101.856 181.543 98.6501C181.755 93.5875 179.964 87.9335 176.569 84.2408C173.821 81.2514 170.429 79.5029 166.994 78.7669C163.229 77.8479 159.165 78.0153 155.448 79.9722C154.495 80.5239 153.542 81.0755 152.67 81.7151C150.237 83.3033 148.112 85.5808 146.642 88.3929C141.79 97.2333 142.271 109.932 152.096 115.501C161.92 121.07 174.072 117.524 178.723 107.407Z" fill="#ECF26F"/>
<path d="M217.534 107.094C217.805 106.682 218.076 106.271 218.347 105.86C222.008 101.196 219.708 93.5763 213.866 91.8094C212.031 91.2251 210.101 90.8904 208.163 90.7245C207.576 90.6153 206.901 90.5869 206.307 90.6465C204.7 90.6635 202.918 90.8422 201.613 91.7171C200.748 92.1879 200.045 92.8346 199.26 93.3933C198.213 94.1946 197.298 95.8466 196.992 97.1017C196.495 98.8559 196.586 100.719 197.19 102.435C197.499 103.124 197.808 103.814 198.125 104.334C198.272 104.847 198.332 105.442 198.567 105.874C199.326 107.935 200.679 109.935 202.661 111.033C204.893 112.226 207.646 113.102 210.212 112.365C211.239 112.07 212.354 111.694 213.388 111.23C215.213 110.039 216.194 108.812 217.534 107.094Z" fill="#ECF26F"/>
<path d="M135.038 64.8295C135.126 64.7487 135.045 64.6608 135.133 64.5799L135.221 64.4991C136.48 62.6924 137.159 60.6078 136.408 58.3786C136.208 57.1023 135.582 55.8926 134.693 54.9255C131.534 51.6653 126.376 51.7021 123.123 54.6929C121.013 56.6328 119.887 59.2904 119.604 61.9833C119.569 62.8271 119.621 63.59 119.843 64.3601C119.836 64.5288 119.836 64.5288 119.828 64.6976C119.853 66.1355 120.221 67.4189 121.015 68.6356C122.765 71.245 126.362 72.1568 129.213 70.6706C129.991 70.2807 130.775 69.722 131.559 69.1632C133.032 68.2954 134.365 66.7454 135.038 64.8295Z" fill="#ECF26F"/>
<path d="M164.218 6.04227C166.233 4.3519 167.345 2.03191 167.532 -0.411483C167.927 -1.74733 168.071 -3.1782 167.717 -4.7991C167.215 -6.93334 165.627 -9.36683 163.732 -10.5453C163.152 -10.8232 162.572 -11.1012 162.073 -11.2912C160.259 -12.3817 158.248 -12.8043 155.959 -12.6469C154.521 -12.6228 153.238 -12.2541 151.94 -11.5479C151.075 -11.0771 150.291 -10.5184 149.588 -9.87171C148.972 -9.30588 148.438 -8.65215 147.984 -7.91049L147.896 -7.82966C146.292 -5.86843 144.85 -3.73135 144.905 -1.02419C144.894 1.25754 145.565 3.39887 146.837 5.3119C149.785 9.57756 155.385 11.0808 160.136 8.66009C160.825 8.35095 161.433 7.95387 161.873 7.54971C162.562 7.24057 163.258 6.76268 163.874 6.19686C163.955 6.28479 164.13 6.1231 164.218 6.04227Z" fill="#ECF26F"/>
<path d="M131.789 25.473C131.884 25.2235 131.972 25.1426 132.067 24.8931C132.855 22.2214 132.417 18.5683 130.213 16.7007L130.132 16.6127C128.583 15.2797 127.187 14.2913 125.169 14.0375C123.07 13.6957 121.618 14.0573 119.726 14.8231C117.578 15.6626 115.879 17.8734 114.95 19.863C113.926 22.1021 113.585 24.2009 113.992 26.5848C114.599 30.2449 116.928 33.1322 119.976 35.0353C122.363 36.5725 125.481 36.7881 127.988 35.4565C131.375 33.3166 132.983 29.2424 131.789 25.473Z" fill="#ECF26F"/>
<path d="M258.065 94.0048C258.965 92.6902 259.448 91.2735 259.511 89.7548C259.913 88.2502 259.889 86.8122 259.446 85.2721C259.173 83.7391 258.554 82.3608 257.511 81.049C256.723 79.6635 255.585 78.6013 254.182 77.7817C252.368 76.6912 250.533 76.1069 248.508 76.0218C246.139 76.0913 244.525 76.277 242.282 77.3661C238.477 79.4039 236.12 83.1931 235.855 87.4928C235.703 89.0924 235.984 90.4566 236.602 91.835C237.044 93.3751 237.751 94.6726 238.97 95.8227C239.786 96.5332 240.52 97.1557 241.336 97.8662C242.65 98.7667 244.067 99.2489 245.498 99.3936C246.415 99.6857 247.428 99.7282 248.535 99.5212C249.973 99.4971 251.425 99.1355 252.811 98.3484C253.068 98.2747 253.155 98.1938 253.412 98.1201C255.392 97.2735 256.974 95.8185 258.065 94.0048Z" fill="#ECF26F"/>
<path d="M230.728 58.623C231.08 58.2997 231.263 57.9692 231.615 57.6459C231.974 57.1538 232.251 56.5738 232.442 56.0746C232.529 55.9938 232.705 55.8322 232.712 55.6634C233.796 54.0184 234.218 52.0075 234.047 50.0562C234.082 49.2125 233.942 48.5303 233.552 47.7532C233.331 46.9832 233.022 46.294 232.456 45.6786C232.066 44.9014 231.5 44.286 230.839 43.9201C230.031 43.0409 228.959 42.4041 227.704 42.0978C227.285 41.9957 226.867 41.8936 226.449 41.7915C225.612 41.5873 224.687 41.4639 223.844 41.4285C222.494 41.3718 221.555 41.5859 220.616 41.8C220.616 41.8 220.616 41.8 220.704 41.7192C220.616 41.8 220.535 41.7121 220.447 41.7929C219.589 42.095 218.731 42.397 217.873 42.6991C216.495 43.3173 215.528 44.2065 214.634 45.3523C213.931 45.999 213.477 46.7406 213.185 47.6582C212.541 48.899 212.235 50.154 212.178 51.504C212.093 53.5291 212.521 55.4066 213.456 57.3055C215.009 60.5827 218.555 62.6759 222.099 62.8248C223.956 62.9028 225.576 62.5483 227.219 61.6875C228.516 60.9813 229.74 60.0184 230.728 58.623Z" fill="#ECF26F"/>
<path d="M134.659 -14.6401C135.141 -16.0567 135.285 -17.4876 135.012 -19.0206C134.988 -20.4585 134.626 -21.9107 133.839 -23.2961C133.28 -24.0804 132.641 -24.9525 132.082 -25.7367C130.708 -27.2314 129.063 -28.3148 127.059 -28.9062C126.978 -28.9941 126.978 -28.9941 126.809 -29.0012C125.804 -29.2125 124.879 -29.3359 123.874 -29.5472C122.854 -29.421 121.923 -29.3756 120.903 -29.2494C119.957 -28.8665 118.93 -28.5715 118.072 -28.2695C116.944 -27.5562 115.727 -26.762 114.76 -25.8729C114.496 -25.6304 114.232 -25.3879 113.968 -25.1454C113.529 -24.7413 113.082 -24.1684 112.723 -23.6763C111.932 -22.9488 111.39 -22.1263 111.179 -21.1209C110.989 -20.6217 110.711 -20.0417 110.521 -19.5425C109.937 -17.7075 109.852 -15.6824 110.28 -13.8049C110.575 -12.7782 110.87 -11.7515 111.341 -10.8864L111.422 -10.7985C111.731 -10.1093 112.296 -9.49383 112.694 -8.88546C112.774 -8.79754 112.936 -8.6217 112.929 -8.45295C113.664 -7.8304 114.398 -7.20783 115.133 -6.58528C115.301 -6.57819 115.463 -6.40235 115.632 -6.39526C116.212 -6.1173 116.792 -5.83936 117.291 -5.64933C117.372 -5.56141 117.541 -5.55433 117.621 -5.46641C118.121 -5.27638 118.627 -5.2551 119.126 -5.06507C119.295 -5.05798 119.376 -4.97005 119.464 -5.05088C119.544 -4.96296 119.632 -5.04381 119.713 -4.95588C121.981 -4.60702 124.277 -4.93318 126.27 -6.11728C126.791 -6.43352 127.311 -6.74974 127.92 -7.14681C128.008 -7.22764 128.264 -7.30137 128.352 -7.3822C131.461 -8.94211 133.768 -11.55 134.659 -14.6401Z" fill="#ECF26F"/>
<path d="M201.134 14.6093C202.781 11.6355 203.847 8.38378 203.226 5.06116C203.174 4.29822 203.121 3.53528 202.981 2.85318C202.598 1.9073 202.303 0.880598 201.92 -0.0652775C201.28 -0.937413 200.641 -1.80953 200.089 -2.7625C199.046 -4.07425 197.731 -4.97477 196.146 -5.46402C195.242 -6.09366 194.237 -6.30494 193.224 -6.34749C192.226 -6.72755 191.213 -6.77011 190.187 -6.47515C189.174 -6.51769 188.067 -6.31064 187.202 -5.83984C186.175 -5.54487 185.141 -5.08115 184.269 -4.44159C183.242 -4.14662 182.377 -3.67582 181.586 -2.94834C180.897 -2.63919 180.369 -2.15422 179.842 -1.66923C179.043 -0.772989 178.326 0.211166 177.527 1.1074C176.451 2.58365 175.962 4.16908 175.803 5.93746C175.504 7.02372 175.454 8.205 175.661 9.31254C175.671 11.088 176.106 12.7968 176.974 14.2702C178.239 16.352 179.856 18.1105 181.824 19.5456C183.3 20.622 184.886 21.1112 186.654 21.27C188.327 21.6784 190.015 21.7493 191.724 21.314C195.648 20.4646 199.217 17.9943 201.134 14.6093Z" fill="#ECF26F"/>
<path d="M253.694 135.661C254.961 133.686 255.654 131.264 255.834 128.989C256.152 125.453 254.525 121.919 252.269 119.288C249.609 116.218 245.629 114.36 241.499 114.102C239.136 114.003 236.158 114.469 234.083 115.565C231.488 116.978 229.803 118.851 228.185 121.15C226.567 123.449 225.891 127.477 226.621 130.213C227.004 131.159 227.299 132.186 227.682 133.131C228.462 134.686 229.425 135.91 230.82 136.898C231.636 137.608 232.627 138.157 233.618 138.706C234.918 139.944 236.563 141.027 238.318 141.524C238.986 141.721 239.741 141.837 240.497 141.953C240.666 141.961 240.747 142.049 240.835 141.968C241.253 142.07 241.679 142.003 242.097 142.105C241.928 142.098 241.847 142.01 241.759 142.091C244.034 142.271 246.418 141.864 248.5 140.599C250.75 139.341 252.157 138.048 253.694 135.661Z" fill="#ECF26F"/>
<path d="M90.1453 22.9899C92.4145 22.3927 94.5643 21.079 96.2363 19.5263C98.8638 17.1377 100.058 13.4353 100.178 9.97173C100.297 5.91102 98.625 1.85033 95.7586 -1.13548C94.0865 -2.80754 91.5785 -4.47958 89.3092 -5.07674C86.4429 -5.79334 83.9348 -5.5545 81.1878 -4.95734C78.4409 -4.36018 75.2162 -1.85208 73.9024 0.656004C73.5441 1.61146 73.0664 2.56688 72.7081 3.52234C72.2304 5.1944 72.111 6.74706 72.4693 8.41912C72.5887 9.49401 72.947 10.5689 73.3053 11.6438C73.4247 13.4353 73.9024 15.3462 74.8579 16.8988C75.2162 17.496 75.6939 18.0931 76.1717 18.6903C76.2911 18.8097 76.2911 18.9292 76.4105 18.9292C76.6494 19.2875 77.0077 19.5263 77.2466 19.8846C77.1271 19.7652 77.1271 19.6457 77.0077 19.6457C78.5603 21.3178 80.5907 22.6316 82.9793 23.1093C85.4874 23.7065 87.3983 23.7065 90.1453 22.9899Z" fill="#ECF26F"/>
</g>
<defs>
<clipPath id="clip0_2150_279">
<rect width="312" height="117" rx="14" fill="white"/>
</clipPath>
</defs>
</svg>
