<svg width="269" height="388" viewBox="0 0 269 388" fill="none" xmlns="http://www.w3.org/2000/svg">
<path d="M224.897 19.1779C233.393 30.6138 231.168 46.7039 219.993 55.4189L208.261 64.1402L206.763 74.2999C206.069 79.004 201.693 82.2551 196.989 81.5613C192.285 80.8676 189.034 76.4917 189.728 71.7875L191.226 61.6279L182.511 49.8911C174.328 38.3215 176.842 22.2738 188.278 13.7774C199.881 5.15663 216.276 7.57451 224.897 19.1779Z" fill="#D0ADFF"/>
<path d="M136.038 94.1573C140.155 107.784 154.391 115.578 168.037 111.801L178.07 108.772C181.091 107.86 184.033 110.4 183.573 113.521L181.25 129.276C180.556 133.98 183.807 138.356 188.511 139.049C193.215 139.743 197.591 136.492 198.285 131.788L200.608 116.034C201.069 112.912 204.619 111.33 207.248 113.075L215.979 118.871C227.954 126.427 243.834 123.074 251.71 111.216C259.701 99.1848 256.425 82.9533 244.394 74.9622C232.536 67.0864 216.599 70.1542 208.491 81.7623L198.73 96.4496C196.715 99.4824 192.079 98.7986 191.024 95.3132L185.919 78.4334C181.507 64.979 167.134 57.4411 153.508 61.5585C139.681 65.7362 131.86 80.3312 136.038 94.1573Z" fill="#D0ADFF"/>
<path d="M158.679 175.257C145.033 179.034 130.797 171.24 126.679 157.614C122.502 143.788 130.323 129.193 144.149 125.015C157.776 120.898 172.149 128.436 176.561 141.89L181.666 158.77C182.72 162.255 187.356 162.939 189.372 159.906L199.133 145.219C207.24 133.611 223.178 130.543 235.036 138.419C247.067 146.41 250.342 162.641 242.351 174.673C234.476 186.531 218.596 189.883 206.621 182.327L197.889 176.532C195.261 174.787 191.71 176.369 191.25 179.49L188.926 195.244C188.233 199.949 183.857 203.2 179.153 202.506C174.448 201.812 171.197 197.436 171.891 192.732L174.215 176.978C174.675 173.857 171.732 171.317 168.712 172.229L158.679 175.257Z" fill="#D0ADFF"/>
<path d="M149.635 236.584C135.988 240.361 121.752 232.567 117.635 218.941C113.457 205.115 121.279 190.52 135.105 186.342C148.731 182.225 163.105 189.763 167.516 203.217L172.622 220.097C173.676 223.582 178.312 224.266 180.328 221.233L190.088 206.546C198.196 194.938 214.134 191.87 225.991 199.746C238.023 207.737 241.298 223.968 233.307 236C225.431 247.858 209.551 251.21 197.576 243.655L188.845 237.859C186.216 236.114 182.666 237.696 182.206 240.817L179.882 256.572C179.188 261.276 174.812 264.527 170.108 263.833C165.404 263.139 162.153 258.763 162.847 254.059L165.17 238.305C165.631 235.184 162.688 232.644 159.667 233.556L149.635 236.584Z" fill="#D0ADFF"/>
<path d="M9.48258 49.7227L74.6237 29.6557C81.7048 27.4914 89.2328 31.4671 91.3971 38.5482L102.195 73.6007C104.359 80.6817 100.384 88.2098 93.3027 90.3741L69.3306 97.761L83.5633 141.4H66.2488L53.6158 102.607L28.1851 110.441C26.8677 110.841 25.5503 111.029 24.2329 111.029C18.4928 111.029 13.176 107.312 11.3881 101.549L0.59008 66.4961C-1.57423 59.415 2.40151 51.887 9.48258 49.7227ZM26.2325 93.8088L85.5629 75.5297L76.5528 46.288L17.2224 64.567L26.2325 93.8088Z" fill="#F9FF85"/>
<path d="M15.2411 179.675C16.1586 181.44 16.629 183.369 16.5349 185.298C14.9823 221.879 35.0257 344.492 41.5657 372.111C42.1303 374.558 44.2005 376.487 46.8823 377.239C60.1976 381.003 70.1252 377.71 73.7481 376.134C74.7126 375.71 75.4184 374.957 75.7477 374.064L77.1593 368.794C77.4416 367.971 78.3825 367.406 79.3706 367.476L105.272 369.382C106.448 369.476 107.413 370.299 107.53 371.358C107.907 375.169 108.989 383.756 110.683 384.65C120.822 390.131 138.513 386.508 142.089 384.462C143.876 383.45 144.888 374.699 145.264 371.076C145.335 370.205 146.135 369.476 147.17 369.429L171.966 367.759C172.836 367.665 173.636 368.229 173.777 369.006L173.918 371.852C174.365 374.463 176.6 377.216 179.494 377.851C191.186 380.392 206.006 379.263 207.559 373.617C209.018 368.253 212.405 353.103 216.216 334C199.866 335.176 183.681 329.483 169.519 322.049C133.078 302.03 104.989 269 89.9804 230.207C81.2055 227.831 74.7362 219.809 74.7362 210.305C74.7362 198.919 84.0051 189.65 95.3677 189.65C106.777 189.65 116.046 198.919 116.046 210.305C116.046 214.822 114.588 218.962 112.141 222.35C127.15 262.013 168.06 309.981 211.77 315.039C214.781 315.204 217.51 315.062 220.004 314.615C227.485 282.762 231.084 242.958 232.519 215.692C232.802 210.187 233.013 205.177 233.131 200.871C233.154 200.401 233.154 199.93 233.178 199.483C233.413 190.403 233.319 184.639 233.037 183.957C232.449 182.545 233.695 180.969 234.66 179.699C243.623 167.724 240.4 148.763 232.684 148.763L15.3352 149.351C13.5002 149.351 11.7829 150.292 10.983 151.774C4.65475 163.302 12.6298 174.523 15.2411 179.675Z" fill="#7B48CC"/>
<path d="M74.7369 210.306C74.7369 219.81 81.2063 227.832 89.9812 230.208C104.99 269.001 133.079 302.03 169.52 322.05C183.682 329.484 199.867 335.177 216.217 334.001C217.464 327.884 218.734 321.344 220.005 314.616C217.511 315.063 214.782 315.204 211.771 315.04C168.061 309.982 127.151 262.014 112.142 222.351C114.589 218.963 116.047 214.822 116.047 210.306C116.047 198.919 106.778 189.651 95.3685 189.651C84.0058 189.651 74.7369 198.919 74.7369 210.306Z" fill="#7B48CC"/>
<path d="M95.3719 220.257C100.877 220.257 105.347 215.787 105.347 210.306C105.347 204.824 100.877 200.354 95.3719 200.354C89.8906 200.354 85.4208 204.824 85.4208 210.306C85.4208 215.787 89.8906 220.257 95.3719 220.257ZM95.3719 189.651C106.782 189.651 116.051 198.919 116.051 210.306C116.051 214.822 114.592 218.963 112.145 222.35C127.154 262.014 168.065 309.982 211.774 315.039C214.786 315.204 217.514 315.063 220.008 314.616C220.832 314.498 221.631 314.334 222.384 314.122C256.049 305.441 240.31 241.359 232.524 215.693C232.806 210.188 233.018 205.177 233.135 200.872C233.159 200.401 233.159 199.931 233.182 199.484C233.3 196.496 233.323 188.968 233.323 188.404C234.829 192.05 237.158 197.414 237.158 197.414C241.534 207.812 245.862 219.104 249.226 229.902C255.155 249.122 259.93 269.683 257.837 290.315C256.119 310.429 244.168 329.484 222.737 333.201C221.655 333.389 220.573 333.577 219.491 333.695C218.408 333.836 217.326 333.954 216.221 334.001C199.871 335.177 183.685 329.484 169.523 322.05C133.083 302.03 104.994 269.001 89.9847 230.208C81.2098 227.832 74.7404 219.81 74.7404 210.306C74.7404 198.919 84.0093 189.651 95.3719 189.651Z" fill="#F9FF85"/>
</svg>
