<svg width="259" height="359" viewBox="0 0 259 359" fill="none" xmlns="http://www.w3.org/2000/svg">
<path d="M9.48258 20.657L74.6237 0.590041C81.7048 -1.57427 89.2328 2.40147 91.3971 9.48254L102.195 44.535C104.359 51.6161 100.384 59.1441 93.3027 61.3084L69.3306 68.6953L83.5633 112.334H66.2488L53.6158 73.5415L28.1851 81.3754C26.8677 81.7753 25.5503 81.9635 24.2329 81.9635C18.4928 81.9635 13.176 78.2465 11.3881 72.4829L0.59008 37.4304C-1.57423 30.3493 2.40151 22.8213 9.48258 20.657ZM26.2325 64.7431L85.5629 46.4641L76.5528 17.2223L17.2224 35.5013L26.2325 64.7431Z" fill="#F9FF85"/>
<path d="M15.2411 150.61C16.1586 152.374 16.629 154.303 16.5349 156.232C14.9823 192.814 35.0257 315.427 41.5657 343.045C42.1303 345.492 44.2005 347.421 46.8823 348.174C60.1976 351.938 70.1252 348.644 73.7481 347.068C74.7126 346.645 75.4184 345.892 75.7477 344.998L77.1593 339.728C77.4416 338.905 78.3825 338.34 79.3706 338.411L105.272 340.316C106.448 340.41 107.413 341.234 107.53 342.292C107.907 346.104 108.989 354.69 110.683 355.584C120.822 361.066 138.513 357.443 142.089 355.396C143.876 354.384 144.888 345.633 145.264 342.01C145.335 341.14 146.135 340.41 147.17 340.363L171.966 338.693C172.836 338.599 173.636 339.164 173.777 339.94L173.918 342.786C174.365 345.398 176.6 348.15 179.494 348.785C191.186 351.326 206.006 350.197 207.559 344.551C209.018 339.187 212.405 324.037 216.216 304.935C199.866 306.111 183.681 300.418 169.519 292.984C133.078 272.964 104.989 239.935 89.9804 201.142C81.2055 198.766 74.7362 190.743 74.7362 181.239C74.7362 169.853 84.0051 160.584 95.3677 160.584C106.777 160.584 116.046 169.853 116.046 181.239C116.046 185.756 114.588 189.897 112.141 193.284C127.15 232.948 168.06 280.915 211.77 285.973C214.781 286.138 217.51 285.997 220.004 285.55C227.485 253.697 231.084 213.892 232.519 186.627C232.802 181.122 233.013 176.111 233.131 171.806C233.154 171.335 233.154 170.865 233.178 170.418C233.413 161.337 233.319 155.573 233.037 154.891C232.449 153.48 233.695 151.903 234.66 150.633C243.623 138.659 240.4 119.698 232.684 119.698L15.3352 120.286C13.5002 120.286 11.7829 121.227 10.983 122.709C4.65475 134.236 12.6298 145.458 15.2411 150.61Z" fill="#7B48CC"/>
<path d="M74.7369 181.24C74.7369 190.744 81.2063 198.766 89.9812 201.142C104.99 239.935 133.079 272.965 169.52 292.984C183.682 300.418 199.867 306.111 216.217 304.935C217.464 298.819 218.734 292.279 220.005 285.55C217.511 285.997 214.782 286.139 211.771 285.974C168.061 280.916 127.151 232.948 112.142 193.285C114.589 189.897 116.047 185.757 116.047 181.24C116.047 169.854 106.778 160.585 95.3685 160.585C84.0058 160.585 74.7369 169.854 74.7369 181.24Z" fill="#7B48CC"/>
<path d="M95.3719 191.191C100.877 191.191 105.347 186.721 105.347 181.24C105.347 175.759 100.877 171.289 95.3719 171.289C89.8906 171.289 85.4208 175.759 85.4208 181.24C85.4208 186.721 89.8906 191.191 95.3719 191.191ZM95.3719 160.585C106.782 160.585 116.051 169.854 116.051 181.24C116.051 185.757 114.592 189.897 112.145 193.285C127.154 232.948 168.065 280.916 211.774 285.974C214.786 286.138 217.514 285.997 220.008 285.55C220.832 285.433 221.631 285.268 222.384 285.056C256.049 276.376 240.31 212.293 232.524 186.627C232.806 181.122 233.018 176.111 233.135 171.806C233.159 171.336 233.159 170.865 233.182 170.418C233.3 167.431 233.323 159.903 233.323 159.338C234.829 162.984 237.158 168.348 237.158 168.348C241.534 178.746 245.862 190.038 249.226 200.836C255.155 220.056 259.93 240.617 257.837 261.249C256.119 281.363 244.168 300.418 222.737 304.135C221.655 304.323 220.573 304.512 219.491 304.629C218.408 304.77 217.326 304.888 216.221 304.935C199.871 306.111 183.685 300.418 169.523 292.984C133.083 272.964 104.994 239.935 89.9847 201.142C81.2098 198.766 74.7404 190.744 74.7404 181.24C74.7404 169.854 84.0093 160.585 95.3719 160.585Z" fill="#F9FF85"/>
</svg>
