<svg width="394" height="480" viewBox="0 0 394 480" fill="none" xmlns="http://www.w3.org/2000/svg">
<path d="M82.3472 224.68C82.9915 220.503 89.0085 220.503 89.6528 224.68L95.8777 265.033C96.1235 266.626 97.3736 267.877 98.967 268.122L139.32 274.347C143.497 274.992 143.497 281.008 139.32 281.653L98.967 287.878C97.3736 288.123 96.1234 289.374 95.8777 290.967L89.6528 331.32C89.0085 335.497 82.9915 335.497 82.3472 331.32L76.1223 290.967C75.8765 289.374 74.6264 288.123 73.033 287.878L32.6796 281.653C28.5029 281.008 28.5029 274.992 32.6796 274.347L73.033 268.122C74.6264 267.877 75.8766 266.626 76.1223 265.033L82.3472 224.68Z" fill="white"/>
<path d="M45.7229 318.761C46.1246 316.158 49.8754 316.158 50.2771 318.761L54.1575 343.917C54.3107 344.91 55.0901 345.689 56.0833 345.842L81.2387 349.723C83.8423 350.125 83.8423 353.875 81.2387 354.277L56.0833 358.158C55.0901 358.311 54.3107 359.09 54.1575 360.083L50.2771 385.239C49.8754 387.842 46.1246 387.842 45.7229 385.239L41.8425 360.083C41.6893 359.09 40.9099 358.311 39.9167 358.158L14.7613 354.277C12.1577 353.875 12.1577 350.125 14.7613 349.723L39.9167 345.842C40.9099 345.689 41.6893 344.91 41.8425 343.917L45.7229 318.761Z" fill="white"/>
<path d="M340.552 23.7533C351.075 37.9175 348.318 57.8463 334.478 68.6404L319.947 79.4424L318.092 92.0259C317.232 97.8524 311.812 101.879 305.986 101.02C300.159 100.161 296.133 94.7407 296.992 88.9142L298.848 76.3308L288.054 61.7939C277.919 47.464 281.032 27.5877 295.196 17.0644C309.568 6.38687 329.874 9.38159 340.552 23.7533Z" fill="#D0ADFF"/>
<path d="M230.493 116.621C235.593 133.498 253.225 143.152 270.127 138.473L282.553 134.722C286.294 133.593 289.939 136.739 289.369 140.605L286.491 160.117C285.632 165.944 289.659 171.364 295.485 172.223C301.312 173.082 306.731 169.056 307.591 163.229L310.468 143.716C311.039 139.85 315.436 137.891 318.692 140.052L329.506 147.231C344.338 156.589 364.007 152.436 373.761 137.75C383.659 122.848 379.602 102.744 364.7 92.8462C350.014 83.0915 330.274 86.8912 320.232 101.269L308.142 119.46C305.646 123.216 299.904 122.369 298.598 118.052L292.275 97.1457C286.811 80.4814 269.008 71.1451 252.131 76.2448C235.006 81.4192 225.318 99.4962 230.493 116.621Z" fill="#D0ADFF"/>
<path d="M258.536 217.069C241.634 221.747 224.002 212.094 218.902 195.216C213.727 178.092 223.415 160.015 240.54 154.84C257.417 149.741 275.219 159.077 280.684 175.741L287.007 196.648C288.313 200.965 294.055 201.812 296.551 198.056L308.641 179.864C318.683 165.487 338.423 161.687 353.109 171.442C368.011 181.339 372.068 201.443 362.17 216.345C352.416 231.032 332.747 235.184 317.915 225.826L307.101 218.648C303.845 216.486 299.447 218.446 298.877 222.312L296 241.825C295.14 247.651 289.72 251.678 283.894 250.819C278.068 249.959 274.041 244.54 274.9 238.713L277.778 219.2C278.348 215.334 274.703 212.189 270.962 213.318L258.536 217.069Z" fill="#D0ADFF"/>
<path d="M247.334 293.027C230.432 297.706 212.799 288.052 207.7 271.175C202.525 254.05 212.213 235.973 229.337 230.799C246.215 225.699 264.017 235.035 269.481 251.699L275.805 272.606C277.111 276.923 282.853 277.77 285.349 274.014L297.439 255.823C307.481 241.445 327.22 237.645 341.907 247.4C356.809 257.298 360.866 277.402 350.968 292.303C341.213 306.99 321.545 311.143 306.713 301.784L295.899 294.606C292.643 292.445 288.245 294.404 287.675 298.27L284.798 317.783C283.938 323.609 278.518 327.636 272.692 326.777C266.865 325.918 262.839 320.498 263.698 314.671L266.576 295.158C267.146 291.293 263.501 288.147 259.76 289.276L247.334 293.027Z" fill="#D0ADFF"/>
<path d="M73.7449 61.5851L154.427 36.7307C163.198 34.0501 172.522 38.9743 175.202 47.7448L188.576 91.1598C191.257 99.9303 186.333 109.254 177.562 111.935L147.871 121.084L165.499 175.134H144.054L128.407 127.087L96.9094 136.789C95.2777 137.285 93.646 137.518 92.0143 137.518C84.9047 137.518 78.3195 132.914 76.1051 125.775L62.7309 82.3603C60.0503 73.5898 64.9745 64.2658 73.7449 61.5851ZM94.4909 116.189L167.976 93.5491L156.816 57.331L83.3313 79.971L94.4909 116.189Z" fill="white"/>
<path d="M80.8768 222.541C82.0132 224.727 82.5959 227.116 82.4793 229.505C80.5562 274.814 105.382 426.68 113.482 460.887C114.181 463.917 116.745 466.307 120.067 467.239C136.559 471.901 148.855 467.822 153.342 465.87C154.537 465.345 155.411 464.413 155.819 463.306L157.567 456.779C157.917 455.759 159.082 455.06 160.306 455.147L192.387 457.507C193.843 457.624 195.038 458.644 195.184 459.955C195.65 464.675 196.99 475.31 199.088 476.418C211.647 483.207 233.558 478.719 237.987 476.184C240.201 474.931 241.454 464.092 241.92 459.605C242.008 458.527 242.999 457.624 244.281 457.565L274.992 455.497C276.07 455.38 277.061 456.079 277.235 457.041L277.41 460.567C277.964 463.801 280.732 467.21 284.316 467.997C298.797 471.144 317.154 469.745 319.077 462.752C320.884 456.109 325.079 437.344 329.8 413.684C309.549 415.141 289.502 408.09 271.961 398.882C226.827 374.086 192.037 333.177 173.447 285.129C162.579 282.186 154.566 272.25 154.566 260.478C154.566 246.376 166.046 234.896 180.12 234.896C194.251 234.896 205.732 246.376 205.732 260.478C205.732 266.073 203.925 271.201 200.895 275.397C219.485 324.523 270.155 383.935 324.293 390.199C328.022 390.403 331.402 390.228 334.491 389.675C343.757 350.222 348.215 300.921 349.992 267.151C350.342 260.333 350.604 254.126 350.75 248.794C350.779 248.211 350.779 247.629 350.808 247.075C351.099 235.828 350.983 228.689 350.633 227.844C349.905 226.096 351.449 224.144 352.643 222.57C363.745 207.739 359.753 184.254 350.196 184.254L80.9934 184.983C78.7206 184.983 76.5936 186.148 75.6029 187.984C67.7649 202.261 77.6425 216.16 80.8768 222.541Z" fill="#7B48CC"/>
<path d="M154.567 260.479C154.567 272.251 162.58 282.187 173.448 285.13C192.038 333.177 226.828 374.087 271.962 398.883C289.503 408.09 309.55 415.142 329.801 413.685C331.345 406.109 332.918 398.009 334.492 389.675C331.403 390.229 328.023 390.404 324.294 390.2C270.156 383.935 219.485 324.524 200.896 275.398C203.926 271.202 205.733 266.074 205.733 260.479C205.733 246.376 194.252 234.896 180.121 234.896C166.047 234.896 154.567 246.376 154.567 260.479Z" fill="#7B48CC"/>
<path d="M180.125 272.804C186.943 272.804 192.479 267.268 192.479 260.479C192.479 253.69 186.943 248.154 180.125 248.154C173.336 248.154 167.8 253.69 167.8 260.479C167.8 267.268 173.336 272.804 180.125 272.804ZM180.125 234.896C194.257 234.896 205.737 246.377 205.737 260.479C205.737 266.074 203.931 271.202 200.9 275.398C219.49 324.524 270.16 383.935 324.298 390.2C328.028 390.404 331.408 390.229 334.496 389.675C335.516 389.53 336.507 389.326 337.439 389.064C379.135 378.312 359.642 298.941 349.998 267.152C350.347 260.333 350.609 254.127 350.755 248.795C350.784 248.212 350.784 247.629 350.813 247.076C350.959 243.375 350.988 234.051 350.988 233.352C352.853 237.868 355.738 244.512 355.738 244.512C361.157 257.391 366.519 271.377 370.685 284.751C378.028 308.556 383.943 334.023 381.35 359.576C379.223 384.489 364.421 408.09 337.876 412.694C336.536 412.927 335.196 413.16 333.855 413.306C332.515 413.481 331.175 413.627 329.805 413.685C309.554 415.142 289.508 408.09 271.967 398.883C226.833 374.087 192.042 333.178 173.453 285.13C162.584 282.187 154.571 272.251 154.571 260.479C154.571 246.377 166.052 234.896 180.125 234.896Z" fill="white"/>
</svg>
