<svg width="116" height="134" viewBox="0 0 116 134" fill="none" xmlns="http://www.w3.org/2000/svg">
<path d="M42.6297 2.52912C43.1499 -0.843065 48.0079 -0.843065 48.5281 2.52912L53.5539 35.1096C53.7524 36.396 54.7617 37.4054 56.0482 37.6039L88.6287 42.6297C92.0008 43.1499 92.0008 48.0079 88.6287 48.5281L56.0482 53.5539C54.7617 53.7524 53.7524 54.7617 53.5539 56.0482L48.5281 88.6287C48.0079 92.0008 43.1499 92.0008 42.6297 88.6287L37.6039 56.0482C37.4054 54.7617 36.396 53.7524 35.1096 53.5539L2.52912 48.5281C-0.843065 48.0079 -0.843065 43.1499 2.52912 42.6297L35.1096 37.6039C36.396 37.4054 37.4054 36.396 37.6039 35.1096L42.6297 2.52912Z" fill="white"/>
<path d="M85.0598 78.4888C85.3841 76.3867 88.4125 76.3867 88.7367 78.4888L91.8697 98.7987C91.9934 99.6007 92.6226 100.23 93.4246 100.354L113.734 103.487C115.837 103.811 115.837 106.839 113.734 107.163L93.4246 110.296C92.6226 110.42 91.9934 111.049 91.8697 111.851L88.7367 132.161C88.4125 134.263 85.3841 134.263 85.0598 132.161L81.9268 111.851C81.8031 111.049 81.1739 110.42 80.372 110.296L60.0621 107.163C57.9599 106.839 57.9599 103.811 60.0621 103.487L80.372 100.354C81.1739 100.23 81.8031 99.6007 81.9268 98.7987L85.0598 78.4888Z" fill="white"/>
</svg>
