<svg width="553" height="476" viewBox="0 0 553 476" fill="none" xmlns="http://www.w3.org/2000/svg">
<path d="M58.8005 231.965C75.9203 227.689 93.2613 237.89 97.9111 254.814L102.303 272.38L113.208 278.927C118.257 281.958 119.893 288.509 116.862 293.558C113.831 298.608 107.28 300.244 102.23 297.212L91.3251 290.665L73.7572 295.048C56.6337 298.901 39.4781 288.391 35.2028 271.271C30.8649 253.901 41.43 236.303 58.8005 231.965Z" fill="#D0ADFF"/>
<path d="M102.268 369.253C119.809 371.027 135.495 358.455 137.668 341.053L138.978 328.139C139.372 324.251 143.677 322.095 147.027 324.106L163.938 334.258C168.987 337.29 175.538 335.654 178.569 330.604C181.601 325.555 179.965 319.004 174.915 315.973L158.005 305.82C154.654 303.809 154.534 298.996 157.78 296.82L168.562 289.593C182.9 279.494 186.621 259.739 176.808 245.091C166.851 230.229 146.731 226.252 131.869 236.209C117.221 246.022 113.147 265.707 122.564 280.501L134.716 298.651C137.225 302.398 134.237 307.375 129.75 306.922L108.018 304.73C90.5335 303.374 75.0752 316.224 73.3008 333.766C71.5003 351.564 84.4693 367.452 102.268 369.253Z" fill="#D0ADFF"/>
<path d="M205.782 381.945C203.609 399.347 187.923 411.919 170.382 410.144C152.583 408.344 139.614 392.456 141.414 374.658C143.189 357.116 158.647 344.265 176.132 345.622L197.864 347.814C202.351 348.267 205.339 343.29 202.83 339.543L190.678 321.393C181.26 306.599 185.335 286.914 199.982 277.101C214.845 267.144 234.965 271.121 244.922 285.983C254.735 300.631 251.013 320.386 236.676 330.485L225.894 337.712C222.648 339.888 222.768 344.701 226.118 346.712L243.029 356.865C248.078 359.896 249.714 366.447 246.683 371.496C243.651 376.546 237.101 378.181 232.051 375.15L215.141 364.998C211.79 362.987 207.486 365.143 207.092 369.031L205.782 381.945Z" fill="#D0ADFF"/>
<path d="M271.61 421.465C269.437 438.867 253.751 451.439 236.21 449.664C218.411 447.864 205.442 431.976 207.243 414.177C209.017 396.636 224.475 383.785 241.96 385.141L263.692 387.334C268.179 387.786 271.167 382.81 268.658 379.062L256.506 360.913C247.088 346.118 251.163 326.433 265.81 316.62C280.673 306.664 300.793 310.64 310.75 325.503C320.563 340.151 316.841 359.905 302.504 370.004L291.722 377.232C288.476 379.408 288.596 384.221 291.946 386.232L308.857 396.384C313.906 399.416 315.542 405.966 312.511 411.016C309.479 416.065 302.929 417.701 297.879 414.67L280.969 404.518C277.618 402.506 273.314 404.663 272.92 408.551L271.61 421.465Z" fill="#D0ADFF"/>
<path d="M488.315 39.1124C499.373 57.269 493.861 80.8725 476.064 92.2915L457.436 103.643L453.818 118.535C452.143 125.429 445.195 129.661 438.3 127.986C431.405 126.31 427.174 119.363 428.849 112.468L432.467 97.5769L421.126 78.9432C410.552 60.6309 416.485 37.1298 434.642 26.0715C453.064 14.8512 477.094 20.6898 488.315 39.1124Z" fill="#F8FF69"/>
<path d="M346.006 138.353C350.258 159.164 370.344 172.696 391.138 168.952L406.461 165.827C411.074 164.886 415.099 169.063 413.987 173.637L408.377 196.729C406.701 203.624 410.933 210.571 417.828 212.246C424.723 213.922 431.67 209.69 433.345 202.795L438.956 179.704C440.067 175.129 445.56 173.265 449.227 176.218L461.407 186.026C478.165 198.893 502.221 196.087 515.548 179.546C529.07 162.763 526.427 138.196 509.644 124.674C493.103 111.347 469.001 113.722 455.364 129.86L438.848 150.347C435.438 154.577 428.642 152.926 427.553 147.603L422.279 121.821C417.567 101.225 397.242 88.0554 376.431 92.3069C355.314 96.6207 341.693 117.236 346.006 138.353Z" fill="#F8FF69"/>
<path d="M368.54 261.961C347.746 265.705 327.66 252.173 323.408 231.361C319.094 210.245 332.716 189.629 353.832 185.316C374.644 181.064 394.969 194.234 399.681 214.83L404.955 240.611C406.044 245.935 412.839 247.586 416.25 243.355L432.765 222.869C446.403 206.731 470.505 204.355 487.045 217.682C503.828 231.204 506.472 255.772 492.95 272.555C479.623 289.095 455.567 291.902 438.809 279.034L426.629 269.226C422.962 266.273 417.469 268.138 416.358 272.713L410.747 295.804C409.072 302.699 402.124 306.93 395.229 305.255C388.334 303.58 384.103 296.632 385.778 289.737L391.389 266.646C392.5 262.071 388.476 257.894 383.863 258.835L368.54 261.961Z" fill="#F8FF69"/>
<path d="M346.7 351.849C325.906 355.592 305.82 342.061 301.568 321.249C297.254 300.132 310.876 279.517 331.992 275.203C352.804 270.952 373.129 284.121 377.841 304.718L383.115 330.499C384.204 335.822 391 337.473 394.41 333.243L410.925 312.756C424.563 296.618 448.665 294.243 465.205 307.57C481.988 321.092 484.632 345.659 471.11 362.442C457.783 378.983 433.727 381.789 416.969 368.922L404.789 359.114C401.122 356.161 395.629 358.026 394.518 362.601L388.907 385.692C387.232 392.587 380.284 396.818 373.389 395.143C366.495 393.467 362.263 386.52 363.938 379.625L369.549 356.534C370.66 351.959 366.636 347.782 362.023 348.723L346.7 351.849Z" fill="#F8FF69"/>
</svg>
