<svg width="321" height="390" viewBox="0 0 321 390" fill="none" xmlns="http://www.w3.org/2000/svg">
<path d="M234.578 51.5792C236.196 64.8389 226.917 76.9165 213.769 78.8334L200.164 80.4966L194.23 88.0795C191.482 91.5906 186.408 92.2095 182.897 89.4618C179.386 86.7141 178.767 81.6403 181.515 78.1293L187.449 70.5463L185.793 56.94C184.494 43.7168 193.987 31.8073 207.247 30.19C220.701 28.549 232.937 38.1253 234.578 51.5792Z" fill="#D0ADFF"/>
<path d="M127.39 71.4475C124.423 84.4606 132.407 97.4158 145.278 100.669L154.858 102.856C157.742 103.514 158.962 106.949 157.138 109.279L147.936 121.037C145.189 124.548 145.808 129.622 149.319 132.37C152.83 135.117 157.903 134.499 160.651 130.988L169.853 119.229C171.676 116.899 175.303 117.257 176.636 119.899L181.061 128.672C187.313 140.384 201.807 145.019 213.726 139.011C225.819 132.915 230.68 118.17 224.584 106.078C218.576 94.1591 204.167 89.2648 192.176 94.9617L177.409 102.401C174.36 103.937 170.899 101.229 171.657 97.8995L175.328 81.7773C177.976 68.768 169.762 55.9578 156.748 52.9909C143.545 49.9805 130.401 58.2438 127.39 71.4475Z" fill="#D0ADFF"/>
<path d="M108.213 148.032C95.3422 144.778 87.3585 131.823 90.3254 118.81C93.3358 105.606 106.48 97.3432 119.684 100.354C132.697 103.32 140.911 116.131 138.264 129.14L134.592 145.262C133.834 148.591 137.295 151.299 140.344 149.763L155.111 142.324C167.103 136.628 181.512 141.522 187.519 153.44C193.615 165.533 188.754 180.278 176.661 186.374C164.742 192.382 150.248 187.746 143.996 176.034L139.571 167.261C138.239 164.62 134.612 164.262 132.788 166.592L123.586 178.35C120.839 181.861 115.765 182.48 112.254 179.732C108.743 176.985 108.124 171.911 110.872 168.4L120.074 156.641C121.897 154.312 120.677 150.877 117.793 150.219L108.213 148.032Z" fill="#D0ADFF"/>
<path d="M72.3923 193.805C59.5211 190.552 51.5374 177.597 54.5044 164.584C57.5147 151.38 70.6588 143.117 83.8625 146.127C96.8756 149.094 105.09 161.904 102.442 174.913L98.7713 191.036C98.0132 194.365 101.474 197.073 104.523 195.537L119.29 188.098C131.281 182.401 145.691 187.295 151.698 199.214C157.794 211.307 152.933 226.052 140.84 232.147C128.921 238.155 114.427 233.52 108.175 221.808L103.75 213.035C102.417 210.393 98.7904 210.035 96.9673 212.365L87.7653 224.124C85.0176 227.635 79.9438 228.254 76.4327 225.506C72.9216 222.758 72.3027 217.684 75.0504 214.173L84.2525 202.415C86.0756 200.085 84.8562 196.65 81.9721 195.992L72.3923 193.805Z" fill="#D0ADFF"/>
<path d="M281.136 341.693C266.465 348.309 249.246 341.97 242.325 327.536L235.532 312.485L224.681 308.379C219.658 306.479 217.126 300.865 219.027 295.841C220.927 290.817 226.541 288.286 231.565 290.186L242.415 294.291L257.47 287.506C272.212 281.268 289.315 287.915 295.932 302.585C302.645 317.47 296.021 334.979 281.136 341.693Z" fill="#F8FF69"/>
<path d="M219.835 225.538C203.803 226.794 191.767 240.624 192.642 256.594L193.564 268.397C193.841 271.95 190.328 274.585 186.995 273.323L170.17 266.958C165.146 265.057 159.532 267.589 157.631 272.613C155.731 277.637 158.262 283.25 163.286 285.151L180.111 291.517C183.445 292.778 184.334 297.078 181.774 299.558L173.271 307.795C162.043 319.186 161.911 337.519 173.096 349.072C184.445 360.794 203.148 361.096 214.87 349.747C226.423 338.562 226.883 320.234 216.029 308.486L202.176 294.17C199.316 291.214 201.189 286.263 205.29 285.94L225.15 284.379C241.062 282.758 252.849 268.715 251.593 252.684C250.319 236.418 236.1 224.264 219.835 225.538Z" fill="#F8FF69"/>
<path d="M124.873 230.954C123.998 214.983 136.034 201.154 152.065 199.898C168.331 198.624 182.55 210.778 183.824 227.044C185.08 243.075 173.293 257.118 157.38 258.739L137.521 260.3C133.42 260.622 131.547 265.574 134.407 268.53L148.26 282.845C159.114 294.594 158.653 312.922 147.1 324.107C135.378 335.456 116.676 335.154 105.327 323.432C94.1416 311.879 94.2738 293.546 105.502 282.154L114.005 273.917C116.564 271.438 115.675 267.137 112.342 265.876L95.5169 259.511C90.493 257.61 87.9612 251.996 89.8619 246.972C91.7627 241.949 97.3763 239.417 102.4 241.318L119.225 247.683C122.559 248.944 126.071 246.31 125.794 242.756L124.873 230.954Z" fill="#F8FF69"/>
<path d="M59.3777 206.174C58.5023 190.203 70.5388 176.374 86.5699 175.118C102.836 173.844 117.055 185.998 118.329 202.264C119.584 218.295 107.797 232.338 91.8852 233.959L72.0254 235.52C67.9247 235.843 66.0514 240.794 68.9118 243.75L82.7647 258.066C93.6184 269.814 93.1579 288.142 81.6052 299.327C69.8832 310.676 51.1805 310.374 39.8315 298.652C28.6463 287.099 28.7786 268.766 40.0063 257.374L48.5093 249.138C51.0692 246.658 50.1801 242.358 46.8466 241.096L30.0216 234.731C24.9977 232.83 22.4659 227.217 24.3667 222.193C26.2675 217.169 31.881 214.637 36.9049 216.538L53.7299 222.903C57.0634 224.165 60.5762 221.53 60.2989 217.977L59.3777 206.174Z" fill="#F8FF69"/>
</svg>
