<svg width="245" height="73" viewBox="0 0 245 73" fill="none" xmlns="http://www.w3.org/2000/svg">
<g clip-path="url(#clip0_2071_20864)">
<path d="M190.131 -31.0315C190.494 -33.3804 193.877 -33.3804 194.24 -31.0315L197.74 -8.33763C197.879 -7.44158 198.582 -6.73849 199.478 -6.60027L222.172 -3.09954C224.521 -2.7372 224.521 0.646637 222.172 1.00897L199.478 4.50971C198.582 4.64793 197.879 5.35102 197.74 6.24707L194.24 28.941C193.877 31.2898 190.494 31.2898 190.131 28.941L186.631 6.24707C186.492 5.35102 185.789 4.64793 184.893 4.50971L162.199 1.00897C159.85 0.646638 159.85 -2.7372 162.199 -3.09953L184.893 -6.60027C185.789 -6.73849 186.492 -7.44158 186.631 -8.33763L190.131 -31.0315Z" fill="#ECF26F"/>
<path d="M96.308 -12.9884C96.6703 -15.3373 100.054 -15.3373 100.417 -12.9884L103.917 9.70546C104.055 10.6015 104.759 11.3046 105.655 11.4428L128.348 14.9436C130.697 15.3059 130.697 18.6897 128.348 19.0521L105.655 22.5528C104.759 22.691 104.055 23.3941 103.917 24.2902L100.417 46.984C100.054 49.3329 96.6703 49.3329 96.308 46.9841L92.8073 24.2902C92.669 23.3941 91.966 22.691 91.0699 22.5528L68.376 19.0521C66.0271 18.6897 66.0271 15.3059 68.376 14.9436L91.0699 11.4428C91.966 11.3046 92.669 10.6015 92.8073 9.70546L96.308 -12.9884Z" fill="#ECF26F"/>
<path d="M139.611 -54.1266C139.973 -56.4755 143.357 -56.4755 143.719 -54.1266L147.22 -31.4327C147.358 -30.5366 148.061 -29.8336 148.957 -29.6953L171.651 -26.1946C174 -25.8323 174 -22.4484 171.651 -22.0861L148.957 -18.5854C148.061 -18.4471 147.358 -17.744 147.22 -16.848L143.719 5.84589C143.357 8.19478 139.973 8.19479 139.611 5.8459L136.11 -16.848C135.972 -17.744 135.269 -18.4471 134.373 -18.5854L111.679 -22.0861C109.33 -22.4484 109.33 -25.8323 111.679 -26.1946L134.373 -29.6953C135.269 -29.8336 135.972 -30.5366 136.11 -31.4327L139.611 -54.1266Z" fill="#ECF26F"/>
<path d="M58.0565 -53.4048C58.4189 -55.7537 61.8027 -55.7537 62.165 -53.4048L65.6658 -30.7109C65.804 -29.8148 66.5071 -29.1118 67.4031 -28.9735L90.097 -25.4728C92.4459 -25.1105 92.4459 -21.7266 90.097 -21.3643L67.4031 -17.8636C66.5071 -17.7253 65.804 -17.0222 65.6658 -16.1262L62.165 6.56769C61.8027 8.91658 58.4189 8.91659 58.0565 6.5677L54.5558 -16.1262C54.4176 -17.0222 53.7145 -17.7253 52.8184 -17.8636L30.1246 -21.3643C27.7757 -21.7266 27.7757 -25.1105 30.1245 -25.4728L52.8184 -28.9735C53.7145 -29.1118 54.4176 -29.8148 54.5558 -30.7109L58.0565 -53.4048Z" fill="#ECF26F"/>
<path d="M166.314 14.4368C166.677 12.0879 170.061 12.0879 170.423 14.4368L173.924 37.1307C174.062 38.0267 174.765 38.7298 175.661 38.8681L198.355 42.3688C200.704 42.7311 200.704 46.115 198.355 46.4773L175.661 49.978C174.765 50.1163 174.062 50.8193 173.924 51.7154L170.423 74.4093C170.061 76.7582 166.677 76.7582 166.314 74.4093L162.814 51.7154C162.675 50.8193 161.972 50.1163 161.076 49.978L138.382 46.4773C136.033 46.115 136.033 42.7311 138.382 42.3688L161.076 38.8681C161.972 38.7298 162.675 38.0267 162.814 37.1307L166.314 14.4368Z" fill="#ECF26F"/>
<path d="M72.4911 32.4799C72.8534 30.131 76.2373 30.131 76.5996 32.4799L80.1003 55.1738C80.2386 56.0698 80.9417 56.7729 81.8377 56.9111L104.532 60.4119C106.88 60.7742 106.88 64.1581 104.532 64.5204L81.8377 68.0211C80.9417 68.1593 80.2386 68.8624 80.1003 69.7585L76.5996 92.4524C76.2373 94.8013 72.8534 94.8013 72.4911 92.4524L68.9904 69.7585C68.8521 68.8624 68.1491 68.1593 67.253 68.0211L44.5591 64.5204C42.2102 64.1581 42.2102 60.7742 44.5591 60.4119L67.253 56.9111C68.1491 56.7729 68.8521 56.0698 68.9904 55.1738L72.4911 32.4799Z" fill="#ECF26F"/>
<path d="M21.2489 -0.719413C21.6113 -3.0683 24.9951 -3.06831 25.3574 -0.719419L28.8582 21.9745C28.9964 22.8705 29.6995 23.5736 30.5955 23.7118L53.2894 27.2126C55.6383 27.5749 55.6383 30.9587 53.2894 31.3211L30.5955 34.8218C29.6995 34.96 28.9964 35.6631 28.8582 36.5592L25.3574 59.2531C24.9951 61.6019 21.6113 61.602 21.2489 59.2531L17.7482 36.5592C17.61 35.6631 16.9069 34.96 16.0108 34.8218L-6.68307 31.3211C-9.03195 30.9587 -9.03196 27.5749 -6.68307 27.2126L16.0108 23.7118C16.9069 23.5736 17.61 22.8705 17.7482 21.9745L21.2489 -0.719413Z" fill="#ECF26F"/>
<path d="M216.835 34.645C217.197 32.2961 220.581 32.2961 220.943 34.645L224.444 57.3388C224.582 58.2349 225.285 58.938 226.181 59.0762L248.875 62.5769C251.224 62.9393 251.224 66.3231 248.875 66.6855L226.181 70.1862C225.285 70.3244 224.582 71.0275 224.444 71.9236L220.943 94.6174C220.581 96.9663 217.197 96.9663 216.835 94.6174L213.334 71.9236C213.196 71.0275 212.493 70.3244 211.597 70.1862L188.903 66.6855C186.554 66.3231 186.554 62.9393 188.903 62.5769L211.597 59.0762C212.493 58.938 213.196 58.2349 213.334 57.3388L216.835 34.645Z" fill="#ECF26F"/>
<path d="M123.012 52.6881C123.374 50.3392 126.758 50.3392 127.12 52.6881L130.621 75.3819C130.759 76.278 131.462 76.9811 132.358 77.1193L155.052 80.62C157.401 80.9824 157.401 84.3662 155.052 84.7285L132.358 88.2293C131.462 88.3675 130.759 89.0706 130.621 89.9666L127.12 112.661C126.758 115.009 123.374 115.009 123.012 112.661L119.511 89.9666C119.373 89.0706 118.67 88.3675 117.774 88.2293L95.0796 84.7285C92.7307 84.3662 92.7307 80.9824 95.0796 80.62L117.774 77.1193C118.67 76.9811 119.373 76.278 119.511 75.3819L123.012 52.6881Z" fill="#ECF26F"/>
</g>
<defs>
<clipPath id="clip0_2071_20864">
<rect width="245" height="73" rx="12" fill="white"/>
</clipPath>
</defs>
</svg>
