<svg width="179" height="139" viewBox="0 0 179 139" fill="none" xmlns="http://www.w3.org/2000/svg">
<path d="M15.4477 0.93317C26.2399 -1.79209 37.1955 4.61369 40.1567 15.2821L42.9561 26.3552L49.8461 30.4669C53.0363 32.3708 54.0791 36.5004 52.1753 39.6906C50.2714 42.8808 46.1419 43.9236 42.9516 42.0198L36.0617 37.908L24.987 40.7014C14.1918 43.1603 3.35257 36.5593 0.627296 25.7672C-2.13789 14.8169 4.49742 3.69836 15.4477 0.93317Z" fill="#F8FF69"/>
<path d="M43.0947 87.4631C54.163 88.5533 64.0369 80.597 65.3786 69.6161L66.1835 61.4677C66.4258 59.0146 69.1375 57.6469 71.2542 58.9102L81.9383 65.2862C85.1285 67.19 89.2581 66.1472 91.1619 62.957C93.0658 59.7668 92.023 55.6372 88.8328 53.7333L78.1487 47.3573C76.0319 46.0941 75.9483 43.0582 77.9922 41.6802L84.7815 37.1033C93.8089 30.709 96.1235 18.2415 89.9091 9.01781C83.6037 -0.340954 70.9053 -2.81616 61.5466 3.48927C52.3229 9.70368 49.7855 22.1278 55.7505 31.4445L63.4461 42.8732C65.0351 45.2331 63.1588 48.3773 60.3274 48.0991L46.6151 46.7522C35.5834 45.9257 25.8535 54.0575 24.7633 65.1257C23.6571 76.3561 31.8643 86.3569 43.0947 87.4631Z" fill="#F8FF69"/>
<path d="M108.413 95.298C107.071 106.279 97.1973 114.235 86.129 113.145C74.8986 112.039 66.6914 102.038 67.7976 90.8076C68.8878 79.7394 78.6177 71.6076 89.6494 72.4341L103.362 73.7811C106.193 74.0592 108.069 70.915 106.48 68.5552L98.7848 57.1264C92.8198 47.8097 95.3572 35.3856 104.581 29.1712C113.94 22.8658 126.638 25.341 132.943 34.6997C139.158 43.9234 136.843 56.3909 127.816 62.7852L121.027 67.3622C118.983 68.7401 119.066 71.776 121.183 73.0392L131.867 79.4152C135.057 81.3191 136.1 85.4487 134.196 88.6389C132.292 91.8291 128.163 92.8719 124.973 90.9681L114.289 84.5921C112.172 83.3288 109.46 84.6965 109.218 87.1497L108.413 95.298Z" fill="#F8FF69"/>
<path d="M150.003 120.118C148.661 131.099 138.787 139.055 127.719 137.965C116.489 136.859 108.282 126.858 109.388 115.628C110.478 104.559 120.208 96.4277 131.24 97.2542L144.952 98.6012C147.783 98.8793 149.66 95.7352 148.071 93.3753L140.375 81.9465C134.41 72.6298 136.947 60.2057 146.171 53.9913C155.53 47.6859 168.228 50.1611 174.534 59.5198C180.748 68.7435 178.433 81.211 169.406 87.6053L162.617 92.1823C160.573 93.5602 160.656 96.5961 162.773 97.8594L173.457 104.235C176.647 106.139 177.69 110.269 175.786 113.459C173.883 116.649 169.753 117.692 166.563 115.788L155.879 109.412C153.762 108.149 151.05 109.517 150.808 111.97L150.003 120.118Z" fill="#F8FF69"/>
</svg>
