<svg width="141" height="171" viewBox="0 0 141 171" fill="none" xmlns="http://www.w3.org/2000/svg">
<path d="M139.924 16.1687C141.991 26.8357 135.149 37.1633 124.59 39.4665L113.645 41.59L109.262 48.0804C107.232 51.0856 103.15 51.8763 100.145 49.8466C97.1397 47.8168 96.3489 43.7351 98.3787 40.7299L102.762 34.2396L100.645 23.2935C98.8382 12.6381 105.864 2.43471 116.531 0.368169C127.354 -1.72864 137.828 5.34552 139.924 16.1687Z" fill="white"/>
<path d="M54.0816 38.387C52.4144 49.1147 59.6293 59.1724 70.2581 61.0799L78.1556 62.3095C80.5332 62.6796 81.718 65.3971 80.3712 67.3912L73.5735 77.4556C71.5437 80.4608 72.3345 84.5425 75.3397 86.5723C78.3449 88.6021 82.4266 87.8113 84.4563 84.8061L91.254 74.7417C92.6008 72.7476 95.5642 72.8319 96.7955 74.8992L100.885 81.7661C106.624 90.9136 118.649 93.8504 127.978 88.2977C137.443 82.6636 140.549 70.4229 134.915 60.9574C129.362 51.6285 117.392 48.4768 107.986 53.7814L96.4274 60.6573C94.0406 62.0771 91.0788 60.0766 91.5046 57.3323L93.5663 44.0419C94.9745 33.3355 87.5807 23.4085 76.853 21.7413C65.9683 20.0497 55.7731 27.5023 54.0816 38.387Z" fill="white"/>
<path d="M42.8776 101.619C32.2488 99.711 25.0339 89.6533 26.7011 78.9256C28.3927 68.0409 38.5878 60.5884 49.4726 62.2799C60.2002 63.9471 67.594 73.8741 66.1858 84.5805L64.1241 97.8709C63.6984 100.615 66.6602 102.616 69.0469 101.196L80.6059 94.32C90.0118 89.0155 101.982 92.1671 107.535 101.496C113.169 110.962 110.063 123.202 100.597 128.836C91.2682 134.389 79.2437 131.452 73.5049 122.305L69.415 115.438C68.1837 113.371 65.2204 113.286 63.8736 115.28L57.0759 125.345C55.0461 128.35 50.9644 129.141 47.9592 127.111C44.954 125.081 44.1632 120.999 46.193 117.994L52.9907 107.93C54.3375 105.936 53.1527 103.218 50.7751 102.848L42.8776 101.619Z" fill="white"/>
<path d="M16.4159 140.797C5.78713 138.889 -1.42775 128.832 0.239415 118.104C1.93099 107.219 12.1261 99.7666 23.0109 101.458C33.7385 103.125 41.1323 113.052 39.7241 123.759L37.6624 137.049C37.2367 139.793 40.1985 141.794 42.5853 140.374L54.1442 133.498C63.5501 128.194 75.5201 131.345 81.0729 140.674C86.7069 150.14 83.6009 162.38 74.1354 168.015C64.8065 173.567 52.782 170.63 47.0432 161.483L42.9534 154.616C41.7221 152.549 38.7587 152.465 37.4119 154.459L30.6142 164.523C28.5844 167.528 24.5028 168.319 21.4975 166.289C18.4923 164.259 17.7016 160.178 19.7313 157.173L26.5291 147.108C27.8759 145.114 26.691 142.397 24.3134 142.026L16.4159 140.797Z" fill="white"/>
</svg>
