<svg width="261" height="290" viewBox="0 0 261 290" fill="none" xmlns="http://www.w3.org/2000/svg">
<path d="M15.4472 147.695C26.2394 144.97 37.195 151.376 40.1562 162.044L42.9557 173.117L49.8456 177.229C53.0358 179.133 54.0786 183.263 52.1748 186.453C50.2709 189.643 46.1414 190.686 42.9511 188.782L36.0612 184.67L24.9865 187.464C14.1913 189.922 3.35208 183.322 0.626808 172.529C-2.13838 161.579 4.49693 150.461 15.4472 147.695Z" fill="#F8FF69"/>
<path d="M43.0942 234.225C54.1625 235.316 64.0364 227.359 65.3781 216.378L66.183 208.23C66.4253 205.777 69.137 204.409 71.2537 205.672L81.9378 212.048C85.128 213.952 89.2576 212.909 91.1615 209.719C93.0653 206.529 92.0225 202.399 88.8323 200.496L78.1482 194.12C76.0315 192.856 75.9478 189.82 77.9918 188.442L84.781 183.866C93.8085 177.471 96.123 165.004 89.9086 155.78C83.6032 146.421 70.9048 143.946 61.5461 150.251C52.3224 156.466 49.785 168.89 55.75 178.207L63.4456 189.635C65.0346 191.995 63.1583 195.139 60.3269 194.861L46.6146 193.514C35.5829 192.688 25.8531 200.82 24.7628 211.888C23.6566 223.118 31.8638 233.119 43.0942 234.225Z" fill="#F8FF69"/>
<path d="M108.412 242.06C107.071 253.041 97.1968 260.997 86.1285 259.907C74.8982 258.801 66.6909 248.8 67.7971 237.57C68.8874 226.502 78.6172 218.37 89.6489 219.196L103.361 220.543C106.193 220.821 108.069 217.677 106.48 215.317L98.7843 203.889C92.8193 194.572 95.3567 182.148 104.58 175.933C113.939 169.628 126.637 172.103 132.943 181.462C139.157 190.686 136.843 203.153 127.815 209.547L121.026 214.124C118.982 215.502 119.066 218.538 121.183 219.801L131.867 226.177C135.057 228.081 136.1 232.211 134.196 235.401C132.292 238.591 128.162 239.634 124.972 237.73L114.288 231.354C112.171 230.091 109.46 231.459 109.217 233.912L108.412 242.06Z" fill="#F8FF69"/>
<path d="M150.003 266.88C148.661 277.861 138.787 285.818 127.719 284.727C116.488 283.621 108.281 273.62 109.387 262.39C110.478 251.322 120.207 243.19 131.239 244.016L144.951 245.363C147.783 245.641 149.659 242.497 148.07 240.137L140.374 228.709C134.41 219.392 136.947 206.968 146.171 200.753C155.529 194.448 168.228 196.923 174.533 206.282C180.748 215.506 178.433 227.973 169.406 234.368L162.616 238.944C160.572 240.322 160.656 243.358 162.773 244.622L173.457 250.998C176.647 252.901 177.69 257.031 175.786 260.221C173.882 263.411 169.753 264.454 166.562 262.55L155.878 256.174C153.761 254.911 151.05 256.279 150.807 258.732L150.003 266.88Z" fill="#F8FF69"/>
<path d="M140.814 4.15867C156.199 12.7993 161.81 32.1197 153.575 47.62L144.714 63.4092L148.151 75.6554C149.743 81.3257 146.437 87.2128 140.766 88.8045C135.096 90.3963 129.209 87.09 127.617 81.4197L124.18 69.1736L108.395 60.303C93.297 51.3527 88.0331 31.9349 96.6738 16.5497C105.441 0.939096 125.203 -4.60854 140.814 4.15867Z" fill="white"/>
<path d="M78.2005 133.839C89.7403 147.169 109.777 148.792 123.301 137.627L133.117 129.134C136.072 126.577 140.683 127.962 141.739 131.725L147.07 150.715C148.662 156.385 154.549 159.691 160.219 158.099C165.889 156.508 169.196 150.62 167.604 144.95L162.273 125.96C161.217 122.198 164.433 118.615 168.287 119.261L181.089 121.404C198.448 123.9 214.712 112.087 217.629 94.6984C220.588 77.0556 208.685 60.3543 191.042 57.395C173.654 54.4785 157.18 65.9986 153.875 83.2216L150.256 104.762C149.509 109.21 143.921 110.778 140.968 107.369L126.667 90.8595C114.882 77.8726 94.8194 76.6089 81.4894 88.1487C67.9642 99.8575 66.4917 120.314 78.2005 133.839Z" fill="white"/>
<path d="M144.773 214.116C131.249 225.281 111.212 223.658 99.6726 210.328C87.9638 196.803 89.4363 176.347 102.962 164.638C116.292 153.098 136.354 154.362 148.139 167.349L162.44 183.858C165.393 187.267 170.981 185.699 171.728 181.251L175.347 159.711C178.652 142.488 195.126 130.968 212.514 133.884C230.157 136.843 242.06 153.545 239.101 171.187C236.184 188.576 219.92 200.389 202.561 197.893L189.759 195.75C185.905 195.104 182.689 198.687 183.745 202.449L189.076 221.439C190.668 227.11 187.361 232.997 181.691 234.588C176.021 236.18 170.134 232.874 168.542 227.204L163.211 208.214C162.155 204.451 157.544 203.066 154.589 205.623L144.773 214.116Z" fill="white"/>
<path d="M165.524 288.038C152 299.203 131.964 297.58 120.424 284.25C108.715 270.725 110.188 250.269 123.713 238.56C137.043 227.02 157.105 228.284 168.891 241.271L183.191 257.781C186.144 261.19 191.733 259.621 192.48 255.173L196.099 233.633C199.404 216.41 215.877 204.89 233.266 207.806C250.908 210.766 262.812 227.467 259.853 245.11C256.936 262.498 240.671 274.311 223.313 271.816L210.511 269.672C206.657 269.027 203.44 272.609 204.497 276.372L209.827 295.362C211.419 301.032 208.113 306.919 202.443 308.511C196.772 310.102 190.885 306.796 189.293 301.126L183.963 282.136C182.906 278.374 178.296 276.988 175.34 279.545L165.524 288.038Z" fill="white"/>
</svg>
